%TF.GenerationSoftware,KiCad,Pcbnew,(5.1.6)-1*%
%TF.CreationDate,2020-06-10T16:57:25-05:00*%
%TF.ProjectId,GameVision50 Redesign,47616d65-5669-4736-996f-6e3530205265,rev?*%
%TF.SameCoordinates,Original*%
%TF.FileFunction,Legend,Top*%
%TF.FilePolarity,Positive*%
%FSLAX46Y46*%
G04 Gerber Fmt 4.6, Leading zero omitted, Abs format (unit mm)*
G04 Created by KiCad (PCBNEW (5.1.6)-1) date 2020-06-10 16:57:25*
%MOMM*%
%LPD*%
G01*
G04 APERTURE LIST*
%ADD10C,0.300000*%
%ADD11C,0.150000*%
%TA.AperFunction,Profile*%
%ADD12C,0.050000*%
%TD*%
%ADD13C,0.010000*%
%ADD14C,0.120000*%
G04 APERTURE END LIST*
D10*
X104152285Y-89552714D02*
X104080857Y-89624142D01*
X103866571Y-89695571D01*
X103723714Y-89695571D01*
X103509428Y-89624142D01*
X103366571Y-89481285D01*
X103295142Y-89338428D01*
X103223714Y-89052714D01*
X103223714Y-88838428D01*
X103295142Y-88552714D01*
X103366571Y-88409857D01*
X103509428Y-88267000D01*
X103723714Y-88195571D01*
X103866571Y-88195571D01*
X104080857Y-88267000D01*
X104152285Y-88338428D01*
X104795142Y-89695571D02*
X104795142Y-88195571D01*
X105438000Y-89695571D02*
X105438000Y-88909857D01*
X105366571Y-88767000D01*
X105223714Y-88695571D01*
X105009428Y-88695571D01*
X104866571Y-88767000D01*
X104795142Y-88838428D01*
X106152285Y-89695571D02*
X106152285Y-88695571D01*
X106152285Y-88981285D02*
X106223714Y-88838428D01*
X106295142Y-88767000D01*
X106438000Y-88695571D01*
X106580857Y-88695571D01*
X107080857Y-89695571D02*
X107080857Y-88695571D01*
X107080857Y-88195571D02*
X107009428Y-88267000D01*
X107080857Y-88338428D01*
X107152285Y-88267000D01*
X107080857Y-88195571D01*
X107080857Y-88338428D01*
X107723714Y-89624142D02*
X107866571Y-89695571D01*
X108152285Y-89695571D01*
X108295142Y-89624142D01*
X108366571Y-89481285D01*
X108366571Y-89409857D01*
X108295142Y-89267000D01*
X108152285Y-89195571D01*
X107938000Y-89195571D01*
X107795142Y-89124142D01*
X107723714Y-88981285D01*
X107723714Y-88909857D01*
X107795142Y-88767000D01*
X107938000Y-88695571D01*
X108152285Y-88695571D01*
X108295142Y-88767000D01*
X108795142Y-88695571D02*
X109366571Y-88695571D01*
X109009428Y-88195571D02*
X109009428Y-89481285D01*
X109080857Y-89624142D01*
X109223714Y-89695571D01*
X109366571Y-89695571D01*
X109866571Y-89695571D02*
X109866571Y-88695571D01*
X109866571Y-88195571D02*
X109795142Y-88267000D01*
X109866571Y-88338428D01*
X109938000Y-88267000D01*
X109866571Y-88195571D01*
X109866571Y-88338428D01*
X111223714Y-89695571D02*
X111223714Y-88909857D01*
X111152285Y-88767000D01*
X111009428Y-88695571D01*
X110723714Y-88695571D01*
X110580857Y-88767000D01*
X111223714Y-89624142D02*
X111080857Y-89695571D01*
X110723714Y-89695571D01*
X110580857Y-89624142D01*
X110509428Y-89481285D01*
X110509428Y-89338428D01*
X110580857Y-89195571D01*
X110723714Y-89124142D01*
X111080857Y-89124142D01*
X111223714Y-89052714D01*
X111938000Y-88695571D02*
X111938000Y-89695571D01*
X111938000Y-88838428D02*
X112009428Y-88767000D01*
X112152285Y-88695571D01*
X112366571Y-88695571D01*
X112509428Y-88767000D01*
X112580857Y-88909857D01*
X112580857Y-89695571D01*
X114438000Y-89695571D02*
X114438000Y-88195571D01*
X115295142Y-89695571D02*
X114652285Y-88838428D01*
X115295142Y-88195571D02*
X114438000Y-89052714D01*
X115938000Y-89695571D02*
X115938000Y-88695571D01*
X115938000Y-88981285D02*
X116009428Y-88838428D01*
X116080857Y-88767000D01*
X116223714Y-88695571D01*
X116366571Y-88695571D01*
X117509428Y-89695571D02*
X117509428Y-88909857D01*
X117438000Y-88767000D01*
X117295142Y-88695571D01*
X117009428Y-88695571D01*
X116866571Y-88767000D01*
X117509428Y-89624142D02*
X117366571Y-89695571D01*
X117009428Y-89695571D01*
X116866571Y-89624142D01*
X116795142Y-89481285D01*
X116795142Y-89338428D01*
X116866571Y-89195571D01*
X117009428Y-89124142D01*
X117366571Y-89124142D01*
X117509428Y-89052714D01*
X118223714Y-89695571D02*
X118223714Y-88695571D01*
X118223714Y-88838428D02*
X118295142Y-88767000D01*
X118438000Y-88695571D01*
X118652285Y-88695571D01*
X118795142Y-88767000D01*
X118866571Y-88909857D01*
X118866571Y-89695571D01*
X118866571Y-88909857D02*
X118938000Y-88767000D01*
X119080857Y-88695571D01*
X119295142Y-88695571D01*
X119438000Y-88767000D01*
X119509428Y-88909857D01*
X119509428Y-89695571D01*
X120795142Y-89624142D02*
X120652285Y-89695571D01*
X120366571Y-89695571D01*
X120223714Y-89624142D01*
X120152285Y-89481285D01*
X120152285Y-88909857D01*
X120223714Y-88767000D01*
X120366571Y-88695571D01*
X120652285Y-88695571D01*
X120795142Y-88767000D01*
X120866571Y-88909857D01*
X120866571Y-89052714D01*
X120152285Y-89195571D01*
X121509428Y-89695571D02*
X121509428Y-88695571D01*
X121509428Y-88981285D02*
X121580857Y-88838428D01*
X121652285Y-88767000D01*
X121795142Y-88695571D01*
X121938000Y-88695571D01*
X103580857Y-90745571D02*
X103723714Y-90745571D01*
X103866571Y-90817000D01*
X103938000Y-90888428D01*
X104009428Y-91031285D01*
X104080857Y-91317000D01*
X104080857Y-91674142D01*
X104009428Y-91959857D01*
X103938000Y-92102714D01*
X103866571Y-92174142D01*
X103723714Y-92245571D01*
X103580857Y-92245571D01*
X103438000Y-92174142D01*
X103366571Y-92102714D01*
X103295142Y-91959857D01*
X103223714Y-91674142D01*
X103223714Y-91317000D01*
X103295142Y-91031285D01*
X103366571Y-90888428D01*
X103438000Y-90817000D01*
X103580857Y-90745571D01*
X105366571Y-90745571D02*
X105080857Y-90745571D01*
X104938000Y-90817000D01*
X104866571Y-90888428D01*
X104723714Y-91102714D01*
X104652285Y-91388428D01*
X104652285Y-91959857D01*
X104723714Y-92102714D01*
X104795142Y-92174142D01*
X104938000Y-92245571D01*
X105223714Y-92245571D01*
X105366571Y-92174142D01*
X105438000Y-92102714D01*
X105509428Y-91959857D01*
X105509428Y-91602714D01*
X105438000Y-91459857D01*
X105366571Y-91388428D01*
X105223714Y-91317000D01*
X104938000Y-91317000D01*
X104795142Y-91388428D01*
X104723714Y-91459857D01*
X104652285Y-91602714D01*
X107223714Y-90674142D02*
X105938000Y-92602714D01*
X108509428Y-92245571D02*
X107652285Y-92245571D01*
X108080857Y-92245571D02*
X108080857Y-90745571D01*
X107938000Y-90959857D01*
X107795142Y-91102714D01*
X107652285Y-91174142D01*
X109438000Y-90745571D02*
X109580857Y-90745571D01*
X109723714Y-90817000D01*
X109795142Y-90888428D01*
X109866571Y-91031285D01*
X109938000Y-91317000D01*
X109938000Y-91674142D01*
X109866571Y-91959857D01*
X109795142Y-92102714D01*
X109723714Y-92174142D01*
X109580857Y-92245571D01*
X109438000Y-92245571D01*
X109295142Y-92174142D01*
X109223714Y-92102714D01*
X109152285Y-91959857D01*
X109080857Y-91674142D01*
X109080857Y-91317000D01*
X109152285Y-91031285D01*
X109223714Y-90888428D01*
X109295142Y-90817000D01*
X109438000Y-90745571D01*
X111652285Y-90674142D02*
X110366571Y-92602714D01*
X112080857Y-90888428D02*
X112152285Y-90817000D01*
X112295142Y-90745571D01*
X112652285Y-90745571D01*
X112795142Y-90817000D01*
X112866571Y-90888428D01*
X112938000Y-91031285D01*
X112938000Y-91174142D01*
X112866571Y-91388428D01*
X112009428Y-92245571D01*
X112938000Y-92245571D01*
X113866571Y-90745571D02*
X114009428Y-90745571D01*
X114152285Y-90817000D01*
X114223714Y-90888428D01*
X114295142Y-91031285D01*
X114366571Y-91317000D01*
X114366571Y-91674142D01*
X114295142Y-91959857D01*
X114223714Y-92102714D01*
X114152285Y-92174142D01*
X114009428Y-92245571D01*
X113866571Y-92245571D01*
X113723714Y-92174142D01*
X113652285Y-92102714D01*
X113580857Y-91959857D01*
X113509428Y-91674142D01*
X113509428Y-91317000D01*
X113580857Y-91031285D01*
X113652285Y-90888428D01*
X113723714Y-90817000D01*
X113866571Y-90745571D01*
X103152285Y-93795571D02*
X103509428Y-94795571D01*
X103866571Y-93795571D01*
X105223714Y-94795571D02*
X104366571Y-94795571D01*
X104795142Y-94795571D02*
X104795142Y-93295571D01*
X104652285Y-93509857D01*
X104509428Y-93652714D01*
X104366571Y-93724142D01*
X105866571Y-94652714D02*
X105938000Y-94724142D01*
X105866571Y-94795571D01*
X105795142Y-94724142D01*
X105866571Y-94652714D01*
X105866571Y-94795571D01*
X106866571Y-93295571D02*
X107009428Y-93295571D01*
X107152285Y-93367000D01*
X107223714Y-93438428D01*
X107295142Y-93581285D01*
X107366571Y-93867000D01*
X107366571Y-94224142D01*
X107295142Y-94509857D01*
X107223714Y-94652714D01*
X107152285Y-94724142D01*
X107009428Y-94795571D01*
X106866571Y-94795571D01*
X106723714Y-94724142D01*
X106652285Y-94652714D01*
X106580857Y-94509857D01*
X106509428Y-94224142D01*
X106509428Y-93867000D01*
X106580857Y-93581285D01*
X106652285Y-93438428D01*
X106723714Y-93367000D01*
X106866571Y-93295571D01*
D11*
X146812095Y-74430000D02*
X146716857Y-74382380D01*
X146574000Y-74382380D01*
X146431142Y-74430000D01*
X146335904Y-74525238D01*
X146288285Y-74620476D01*
X146240666Y-74810952D01*
X146240666Y-74953809D01*
X146288285Y-75144285D01*
X146335904Y-75239523D01*
X146431142Y-75334761D01*
X146574000Y-75382380D01*
X146669238Y-75382380D01*
X146812095Y-75334761D01*
X146859714Y-75287142D01*
X146859714Y-74953809D01*
X146669238Y-74953809D01*
X147288285Y-75382380D02*
X147288285Y-74382380D01*
X147859714Y-75382380D01*
X147859714Y-74382380D01*
X148335904Y-75382380D02*
X148335904Y-74382380D01*
X148574000Y-74382380D01*
X148716857Y-74430000D01*
X148812095Y-74525238D01*
X148859714Y-74620476D01*
X148907333Y-74810952D01*
X148907333Y-74953809D01*
X148859714Y-75144285D01*
X148812095Y-75239523D01*
X148716857Y-75334761D01*
X148574000Y-75382380D01*
X148335904Y-75382380D01*
X146335904Y-89749380D02*
X146954952Y-89749380D01*
X146621619Y-90130333D01*
X146764476Y-90130333D01*
X146859714Y-90177952D01*
X146907333Y-90225571D01*
X146954952Y-90320809D01*
X146954952Y-90558904D01*
X146907333Y-90654142D01*
X146859714Y-90701761D01*
X146764476Y-90749380D01*
X146478761Y-90749380D01*
X146383523Y-90701761D01*
X146335904Y-90654142D01*
X147240666Y-89749380D02*
X147574000Y-90749380D01*
X147907333Y-89749380D01*
X148145428Y-89749380D02*
X148764476Y-89749380D01*
X148431142Y-90130333D01*
X148574000Y-90130333D01*
X148669238Y-90177952D01*
X148716857Y-90225571D01*
X148764476Y-90320809D01*
X148764476Y-90558904D01*
X148716857Y-90654142D01*
X148669238Y-90701761D01*
X148574000Y-90749380D01*
X148288285Y-90749380D01*
X148193047Y-90701761D01*
X148145428Y-90654142D01*
X146605809Y-87082380D02*
X146796285Y-87082380D01*
X146891523Y-87130000D01*
X146986761Y-87225238D01*
X147034380Y-87415714D01*
X147034380Y-87749047D01*
X146986761Y-87939523D01*
X146891523Y-88034761D01*
X146796285Y-88082380D01*
X146605809Y-88082380D01*
X146510571Y-88034761D01*
X146415333Y-87939523D01*
X146367714Y-87749047D01*
X146367714Y-87415714D01*
X146415333Y-87225238D01*
X146510571Y-87130000D01*
X146605809Y-87082380D01*
X147462952Y-87082380D02*
X147462952Y-87891904D01*
X147510571Y-87987142D01*
X147558190Y-88034761D01*
X147653428Y-88082380D01*
X147843904Y-88082380D01*
X147939142Y-88034761D01*
X147986761Y-87987142D01*
X148034380Y-87891904D01*
X148034380Y-87082380D01*
X148367714Y-87082380D02*
X148939142Y-87082380D01*
X148653428Y-88082380D02*
X148653428Y-87082380D01*
X149462952Y-87082380D02*
X149558190Y-87082380D01*
X149653428Y-87130000D01*
X149701047Y-87177619D01*
X149748666Y-87272857D01*
X149796285Y-87463333D01*
X149796285Y-87701428D01*
X149748666Y-87891904D01*
X149701047Y-87987142D01*
X149653428Y-88034761D01*
X149558190Y-88082380D01*
X149462952Y-88082380D01*
X149367714Y-88034761D01*
X149320095Y-87987142D01*
X149272476Y-87891904D01*
X149224857Y-87701428D01*
X149224857Y-87463333D01*
X149272476Y-87272857D01*
X149320095Y-87177619D01*
X149367714Y-87130000D01*
X149462952Y-87082380D01*
X146320095Y-85494761D02*
X146462952Y-85542380D01*
X146701047Y-85542380D01*
X146796285Y-85494761D01*
X146843904Y-85447142D01*
X146891523Y-85351904D01*
X146891523Y-85256666D01*
X146843904Y-85161428D01*
X146796285Y-85113809D01*
X146701047Y-85066190D01*
X146510571Y-85018571D01*
X146415333Y-84970952D01*
X146367714Y-84923333D01*
X146320095Y-84828095D01*
X146320095Y-84732857D01*
X146367714Y-84637619D01*
X146415333Y-84590000D01*
X146510571Y-84542380D01*
X146748666Y-84542380D01*
X146891523Y-84590000D01*
X147891523Y-85447142D02*
X147843904Y-85494761D01*
X147701047Y-85542380D01*
X147605809Y-85542380D01*
X147462952Y-85494761D01*
X147367714Y-85399523D01*
X147320095Y-85304285D01*
X147272476Y-85113809D01*
X147272476Y-84970952D01*
X147320095Y-84780476D01*
X147367714Y-84685238D01*
X147462952Y-84590000D01*
X147605809Y-84542380D01*
X147701047Y-84542380D01*
X147843904Y-84590000D01*
X147891523Y-84637619D01*
X148320095Y-85542380D02*
X148320095Y-84542380D01*
X148891523Y-85542380D02*
X148462952Y-84970952D01*
X148891523Y-84542380D02*
X148320095Y-85113809D01*
X149843904Y-85542380D02*
X149272476Y-85542380D01*
X149558190Y-85542380D02*
X149558190Y-84542380D01*
X149462952Y-84685238D01*
X149367714Y-84780476D01*
X149272476Y-84828095D01*
X146367714Y-83002380D02*
X146367714Y-82002380D01*
X146748666Y-82002380D01*
X146843904Y-82050000D01*
X146891523Y-82097619D01*
X146939142Y-82192857D01*
X146939142Y-82335714D01*
X146891523Y-82430952D01*
X146843904Y-82478571D01*
X146748666Y-82526190D01*
X146367714Y-82526190D01*
X147891523Y-83002380D02*
X147320095Y-83002380D01*
X147605809Y-83002380D02*
X147605809Y-82002380D01*
X147510571Y-82145238D01*
X147415333Y-82240476D01*
X147320095Y-82288095D01*
X148320095Y-83002380D02*
X148320095Y-82002380D01*
X148558190Y-82002380D01*
X148701047Y-82050000D01*
X148796285Y-82145238D01*
X148843904Y-82240476D01*
X148891523Y-82430952D01*
X148891523Y-82573809D01*
X148843904Y-82764285D01*
X148796285Y-82859523D01*
X148701047Y-82954761D01*
X148558190Y-83002380D01*
X148320095Y-83002380D01*
X149510571Y-82002380D02*
X149605809Y-82002380D01*
X149701047Y-82050000D01*
X149748666Y-82097619D01*
X149796285Y-82192857D01*
X149843904Y-82383333D01*
X149843904Y-82621428D01*
X149796285Y-82811904D01*
X149748666Y-82907142D01*
X149701047Y-82954761D01*
X149605809Y-83002380D01*
X149510571Y-83002380D01*
X149415333Y-82954761D01*
X149367714Y-82907142D01*
X149320095Y-82811904D01*
X149272476Y-82621428D01*
X149272476Y-82383333D01*
X149320095Y-82192857D01*
X149367714Y-82097619D01*
X149415333Y-82050000D01*
X149510571Y-82002380D01*
X146367714Y-80462380D02*
X146367714Y-79462380D01*
X146748666Y-79462380D01*
X146843904Y-79510000D01*
X146891523Y-79557619D01*
X146939142Y-79652857D01*
X146939142Y-79795714D01*
X146891523Y-79890952D01*
X146843904Y-79938571D01*
X146748666Y-79986190D01*
X146367714Y-79986190D01*
X147320095Y-79557619D02*
X147367714Y-79510000D01*
X147462952Y-79462380D01*
X147701047Y-79462380D01*
X147796285Y-79510000D01*
X147843904Y-79557619D01*
X147891523Y-79652857D01*
X147891523Y-79748095D01*
X147843904Y-79890952D01*
X147272476Y-80462380D01*
X147891523Y-80462380D01*
X148320095Y-80462380D02*
X148320095Y-79462380D01*
X148558190Y-79462380D01*
X148701047Y-79510000D01*
X148796285Y-79605238D01*
X148843904Y-79700476D01*
X148891523Y-79890952D01*
X148891523Y-80033809D01*
X148843904Y-80224285D01*
X148796285Y-80319523D01*
X148701047Y-80414761D01*
X148558190Y-80462380D01*
X148320095Y-80462380D01*
X149510571Y-79462380D02*
X149605809Y-79462380D01*
X149701047Y-79510000D01*
X149748666Y-79557619D01*
X149796285Y-79652857D01*
X149843904Y-79843333D01*
X149843904Y-80081428D01*
X149796285Y-80271904D01*
X149748666Y-80367142D01*
X149701047Y-80414761D01*
X149605809Y-80462380D01*
X149510571Y-80462380D01*
X149415333Y-80414761D01*
X149367714Y-80367142D01*
X149320095Y-80271904D01*
X149272476Y-80081428D01*
X149272476Y-79843333D01*
X149320095Y-79652857D01*
X149367714Y-79557619D01*
X149415333Y-79510000D01*
X149510571Y-79462380D01*
X146320095Y-77874761D02*
X146462952Y-77922380D01*
X146701047Y-77922380D01*
X146796285Y-77874761D01*
X146843904Y-77827142D01*
X146891523Y-77731904D01*
X146891523Y-77636666D01*
X146843904Y-77541428D01*
X146796285Y-77493809D01*
X146701047Y-77446190D01*
X146510571Y-77398571D01*
X146415333Y-77350952D01*
X146367714Y-77303333D01*
X146320095Y-77208095D01*
X146320095Y-77112857D01*
X146367714Y-77017619D01*
X146415333Y-76970000D01*
X146510571Y-76922380D01*
X146748666Y-76922380D01*
X146891523Y-76970000D01*
X147891523Y-77827142D02*
X147843904Y-77874761D01*
X147701047Y-77922380D01*
X147605809Y-77922380D01*
X147462952Y-77874761D01*
X147367714Y-77779523D01*
X147320095Y-77684285D01*
X147272476Y-77493809D01*
X147272476Y-77350952D01*
X147320095Y-77160476D01*
X147367714Y-77065238D01*
X147462952Y-76970000D01*
X147605809Y-76922380D01*
X147701047Y-76922380D01*
X147843904Y-76970000D01*
X147891523Y-77017619D01*
X148320095Y-77922380D02*
X148320095Y-76922380D01*
X148891523Y-77922380D02*
X148462952Y-77350952D01*
X148891523Y-76922380D02*
X148320095Y-77493809D01*
X149272476Y-77017619D02*
X149320095Y-76970000D01*
X149415333Y-76922380D01*
X149653428Y-76922380D01*
X149748666Y-76970000D01*
X149796285Y-77017619D01*
X149843904Y-77112857D01*
X149843904Y-77208095D01*
X149796285Y-77350952D01*
X149224857Y-77922380D01*
X149843904Y-77922380D01*
X118999095Y-84209000D02*
X118903857Y-84161380D01*
X118761000Y-84161380D01*
X118618142Y-84209000D01*
X118522904Y-84304238D01*
X118475285Y-84399476D01*
X118427666Y-84589952D01*
X118427666Y-84732809D01*
X118475285Y-84923285D01*
X118522904Y-85018523D01*
X118618142Y-85113761D01*
X118761000Y-85161380D01*
X118856238Y-85161380D01*
X118999095Y-85113761D01*
X119046714Y-85066142D01*
X119046714Y-84732809D01*
X118856238Y-84732809D01*
X119475285Y-85161380D02*
X119475285Y-84161380D01*
X120046714Y-85161380D01*
X120046714Y-84161380D01*
X120522904Y-85161380D02*
X120522904Y-84161380D01*
X120761000Y-84161380D01*
X120903857Y-84209000D01*
X120999095Y-84304238D01*
X121046714Y-84399476D01*
X121094333Y-84589952D01*
X121094333Y-84732809D01*
X121046714Y-84923285D01*
X120999095Y-85018523D01*
X120903857Y-85113761D01*
X120761000Y-85161380D01*
X120522904Y-85161380D01*
X119038761Y-82526142D02*
X118991142Y-82573761D01*
X118848285Y-82621380D01*
X118753047Y-82621380D01*
X118610190Y-82573761D01*
X118514952Y-82478523D01*
X118467333Y-82383285D01*
X118419714Y-82192809D01*
X118419714Y-82049952D01*
X118467333Y-81859476D01*
X118514952Y-81764238D01*
X118610190Y-81669000D01*
X118753047Y-81621380D01*
X118848285Y-81621380D01*
X118991142Y-81669000D01*
X119038761Y-81716619D01*
X119943523Y-82621380D02*
X119467333Y-82621380D01*
X119467333Y-81621380D01*
X120276857Y-82621380D02*
X120276857Y-81621380D01*
X120848285Y-82621380D02*
X120419714Y-82049952D01*
X120848285Y-81621380D02*
X120276857Y-82192809D01*
X118483190Y-79954380D02*
X118483190Y-78954380D01*
X118721285Y-78954380D01*
X118864142Y-79002000D01*
X118959380Y-79097238D01*
X119007000Y-79192476D01*
X119054619Y-79382952D01*
X119054619Y-79525809D01*
X119007000Y-79716285D01*
X118959380Y-79811523D01*
X118864142Y-79906761D01*
X118721285Y-79954380D01*
X118483190Y-79954380D01*
X119483190Y-79954380D02*
X119483190Y-78954380D01*
X120149857Y-78954380D02*
X120340333Y-78954380D01*
X120435571Y-79002000D01*
X120530809Y-79097238D01*
X120578428Y-79287714D01*
X120578428Y-79621047D01*
X120530809Y-79811523D01*
X120435571Y-79906761D01*
X120340333Y-79954380D01*
X120149857Y-79954380D01*
X120054619Y-79906761D01*
X119959380Y-79811523D01*
X119911761Y-79621047D01*
X119911761Y-79287714D01*
X119959380Y-79097238D01*
X120054619Y-79002000D01*
X120149857Y-78954380D01*
X118522904Y-76541380D02*
X119141952Y-76541380D01*
X118808619Y-76922333D01*
X118951476Y-76922333D01*
X119046714Y-76969952D01*
X119094333Y-77017571D01*
X119141952Y-77112809D01*
X119141952Y-77350904D01*
X119094333Y-77446142D01*
X119046714Y-77493761D01*
X118951476Y-77541380D01*
X118665761Y-77541380D01*
X118570523Y-77493761D01*
X118522904Y-77446142D01*
X119427666Y-76541380D02*
X119761000Y-77541380D01*
X120094333Y-76541380D01*
X120332428Y-76541380D02*
X120951476Y-76541380D01*
X120618142Y-76922333D01*
X120761000Y-76922333D01*
X120856238Y-76969952D01*
X120903857Y-77017571D01*
X120951476Y-77112809D01*
X120951476Y-77350904D01*
X120903857Y-77446142D01*
X120856238Y-77493761D01*
X120761000Y-77541380D01*
X120475285Y-77541380D01*
X120380047Y-77493761D01*
X120332428Y-77446142D01*
D12*
X116332000Y-50800000D02*
X156464000Y-50800000D01*
X101600000Y-67564000D02*
X116332000Y-50800000D01*
X101600000Y-110744000D02*
X101600000Y-67564000D01*
X137668000Y-110744000D02*
X101600000Y-110744000D01*
X156464000Y-80772000D02*
X137668000Y-110744000D01*
X156464000Y-50800000D02*
X156464000Y-80772000D01*
D13*
%TO.C,REF\u002A\u002A*%
G36*
X141253256Y-87031337D02*
G01*
X141252433Y-87147066D01*
X140652115Y-87757000D01*
X140051796Y-88366934D01*
X140051359Y-88646835D01*
X140050921Y-88926737D01*
X139685337Y-88926737D01*
X139675917Y-88997756D01*
X139672350Y-89030127D01*
X139666338Y-89091087D01*
X139658201Y-89176998D01*
X139648262Y-89284226D01*
X139636843Y-89409133D01*
X139624264Y-89548083D01*
X139610847Y-89697441D01*
X139596915Y-89853568D01*
X139582788Y-90012830D01*
X139568788Y-90171590D01*
X139555237Y-90326211D01*
X139542456Y-90473057D01*
X139530767Y-90608493D01*
X139520492Y-90728880D01*
X139511952Y-90830584D01*
X139505469Y-90909967D01*
X139501364Y-90963394D01*
X139499959Y-90987229D01*
X139499960Y-90987342D01*
X139510204Y-91006466D01*
X139540974Y-91045955D01*
X139592689Y-91106266D01*
X139665767Y-91187861D01*
X139760627Y-91291198D01*
X139877687Y-91416738D01*
X140017367Y-91564940D01*
X140180084Y-91736263D01*
X140225821Y-91784237D01*
X140951195Y-92544566D01*
X140892551Y-92603052D01*
X140833908Y-92661539D01*
X140739026Y-92558310D01*
X140704315Y-92521003D01*
X140650094Y-92463311D01*
X140579941Y-92389013D01*
X140497432Y-92301889D01*
X140406145Y-92205718D01*
X140309658Y-92104280D01*
X140251935Y-92043695D01*
X140143566Y-91930197D01*
X140055972Y-91839285D01*
X139986920Y-91769307D01*
X139934176Y-91718610D01*
X139895506Y-91685540D01*
X139868677Y-91668444D01*
X139851456Y-91665669D01*
X139841608Y-91675563D01*
X139836901Y-91696471D01*
X139835101Y-91726741D01*
X139834859Y-91735002D01*
X139822342Y-91791909D01*
X139791503Y-91860693D01*
X139748497Y-91930475D01*
X139699480Y-91990378D01*
X139679866Y-92008882D01*
X139579230Y-92073628D01*
X139461673Y-92109854D01*
X139357738Y-92118447D01*
X139239951Y-92102239D01*
X139131169Y-92054712D01*
X139034890Y-91977511D01*
X139017125Y-91958295D01*
X138952168Y-91884500D01*
X137828421Y-91884500D01*
X137828421Y-92118447D01*
X137527632Y-92118447D01*
X137527632Y-92009152D01*
X137523857Y-91934539D01*
X137511175Y-91882750D01*
X137495763Y-91854580D01*
X137484750Y-91834424D01*
X137475321Y-91805200D01*
X137466849Y-91762575D01*
X137458710Y-91702217D01*
X137450279Y-91619793D01*
X137440932Y-91510972D01*
X137434531Y-91430017D01*
X137405169Y-91050732D01*
X136684341Y-91780938D01*
X136554008Y-91913066D01*
X136428892Y-92040096D01*
X136311279Y-92159695D01*
X136203455Y-92269528D01*
X136107705Y-92367263D01*
X136026317Y-92450566D01*
X135961577Y-92517104D01*
X135915770Y-92564542D01*
X135891208Y-92590520D01*
X135850855Y-92631649D01*
X135817195Y-92660335D01*
X135799090Y-92669895D01*
X135775965Y-92658697D01*
X135742257Y-92630719D01*
X135730831Y-92619326D01*
X135682383Y-92568757D01*
X135949119Y-92297702D01*
X136017169Y-92228652D01*
X136104915Y-92139774D01*
X136208508Y-92034959D01*
X136324100Y-91918097D01*
X136447841Y-91793079D01*
X136575881Y-91663795D01*
X136704372Y-91534136D01*
X136796546Y-91441179D01*
X136936658Y-91299520D01*
X137054368Y-91179591D01*
X137151180Y-91079768D01*
X137228601Y-90998428D01*
X137288136Y-90933948D01*
X137317642Y-90900277D01*
X137554591Y-90900277D01*
X137584257Y-91279592D01*
X137593203Y-91390777D01*
X137601858Y-91492453D01*
X137609729Y-91579304D01*
X137616328Y-91646018D01*
X137621164Y-91687279D01*
X137622720Y-91696506D01*
X137631518Y-91734105D01*
X138893319Y-91734105D01*
X138901742Y-91629173D01*
X138927172Y-91505195D01*
X138980389Y-91395524D01*
X139058037Y-91304156D01*
X139156763Y-91235083D01*
X139267572Y-91193620D01*
X139303520Y-91174171D01*
X139321517Y-91132430D01*
X139321894Y-91130589D01*
X139324053Y-91112967D01*
X139321384Y-91094922D01*
X139311280Y-91073108D01*
X139291137Y-91044177D01*
X139258349Y-91004783D01*
X139210310Y-90951577D01*
X139144416Y-90881214D01*
X139058060Y-90790346D01*
X139052480Y-90784493D01*
X138959595Y-90686956D01*
X138860845Y-90583067D01*
X138763016Y-90479977D01*
X138672893Y-90384839D01*
X138597262Y-90304804D01*
X138580395Y-90286911D01*
X138515735Y-90219444D01*
X138458295Y-90161709D01*
X138412199Y-90117675D01*
X138381569Y-90091314D01*
X138371285Y-90085521D01*
X138355948Y-90097646D01*
X138320083Y-90130910D01*
X138266512Y-90182542D01*
X138198060Y-90249775D01*
X138117553Y-90329837D01*
X138027813Y-90419961D01*
X137954468Y-90494198D01*
X137554591Y-90900277D01*
X137317642Y-90900277D01*
X137331291Y-90884703D01*
X137359571Y-90849071D01*
X137374483Y-90825429D01*
X137377801Y-90814480D01*
X137376544Y-90790586D01*
X137372726Y-90736501D01*
X137366593Y-90655338D01*
X137358393Y-90550210D01*
X137348373Y-90424228D01*
X137336780Y-90280505D01*
X137323860Y-90122154D01*
X137309862Y-89952287D01*
X137298581Y-89816528D01*
X137234750Y-89051106D01*
X137398996Y-89051106D01*
X137399703Y-89067624D01*
X137403031Y-89114145D01*
X137408710Y-89187378D01*
X137416474Y-89284028D01*
X137426057Y-89400805D01*
X137437189Y-89534414D01*
X137449605Y-89681563D01*
X137461520Y-89821271D01*
X137475016Y-89979787D01*
X137487587Y-90129421D01*
X137498945Y-90266602D01*
X137508802Y-90387759D01*
X137516870Y-90489320D01*
X137522860Y-90567712D01*
X137526485Y-90619363D01*
X137527491Y-90639423D01*
X137529060Y-90651908D01*
X137535278Y-90656862D01*
X137548541Y-90652218D01*
X137571247Y-90635909D01*
X137605792Y-90605868D01*
X137654573Y-90560027D01*
X137719987Y-90496320D01*
X137804431Y-90412679D01*
X137894029Y-90323299D01*
X138260426Y-89957186D01*
X138257859Y-89954434D01*
X138500049Y-89954434D01*
X138511087Y-89969550D01*
X138541987Y-90005142D01*
X138589653Y-90057941D01*
X138650987Y-90124673D01*
X138722893Y-90202070D01*
X138802273Y-90286858D01*
X138886031Y-90375767D01*
X138971070Y-90465526D01*
X139054292Y-90552864D01*
X139132601Y-90634509D01*
X139202900Y-90707191D01*
X139262091Y-90767637D01*
X139307078Y-90812578D01*
X139334764Y-90838742D01*
X139342314Y-90844072D01*
X139344803Y-90826867D01*
X139349970Y-90779348D01*
X139357530Y-90704489D01*
X139367200Y-90605264D01*
X139378695Y-90484649D01*
X139391731Y-90345618D01*
X139406024Y-90191145D01*
X139421290Y-90024206D01*
X139433479Y-89889597D01*
X139449071Y-89715054D01*
X139463477Y-89550627D01*
X139476453Y-89399299D01*
X139487759Y-89264053D01*
X139497152Y-89147870D01*
X139504389Y-89053735D01*
X139509228Y-88984630D01*
X139511427Y-88943538D01*
X139511176Y-88932868D01*
X139498030Y-88942372D01*
X139464554Y-88972920D01*
X139413674Y-89021556D01*
X139348317Y-89085323D01*
X139271409Y-89161265D01*
X139185876Y-89246424D01*
X139094646Y-89337845D01*
X139000644Y-89432569D01*
X138906798Y-89527641D01*
X138816033Y-89620103D01*
X138731277Y-89706999D01*
X138655456Y-89785372D01*
X138591497Y-89852265D01*
X138542326Y-89904722D01*
X138510869Y-89939785D01*
X138500049Y-89954434D01*
X138257859Y-89954434D01*
X138123798Y-89810760D01*
X138054216Y-89736448D01*
X137976119Y-89653483D01*
X137892594Y-89565102D01*
X137806730Y-89474541D01*
X137721615Y-89385036D01*
X137640336Y-89299823D01*
X137565981Y-89222139D01*
X137501637Y-89155220D01*
X137450394Y-89102303D01*
X137415337Y-89066623D01*
X137399556Y-89051416D01*
X137398996Y-89051106D01*
X137234750Y-89051106D01*
X137218796Y-88859807D01*
X136420714Y-88020485D01*
X135622632Y-87181164D01*
X135623219Y-87063852D01*
X135623806Y-86946539D01*
X135752725Y-87084253D01*
X135824876Y-87161063D01*
X135910060Y-87251304D01*
X136005979Y-87352575D01*
X136110334Y-87462476D01*
X136220826Y-87578604D01*
X136335156Y-87698558D01*
X136451025Y-87819936D01*
X136566135Y-87940338D01*
X136678186Y-88057362D01*
X136784881Y-88168606D01*
X136883920Y-88271669D01*
X136973003Y-88364150D01*
X137049834Y-88443647D01*
X137112112Y-88507758D01*
X137157538Y-88554083D01*
X137183815Y-88580219D01*
X137189574Y-88585233D01*
X137189970Y-88567791D01*
X137187792Y-88523135D01*
X137183417Y-88457340D01*
X137177225Y-88376483D01*
X137174567Y-88344183D01*
X137154772Y-88107921D01*
X137309758Y-88107921D01*
X137317760Y-88145520D01*
X137321840Y-88175255D01*
X137327575Y-88231203D01*
X137334299Y-88306236D01*
X137341352Y-88393225D01*
X137343793Y-88425421D01*
X137350992Y-88517861D01*
X137358258Y-88603707D01*
X137364864Y-88674847D01*
X137370084Y-88723169D01*
X137371261Y-88731939D01*
X137375702Y-88749942D01*
X137385313Y-88771017D01*
X137402140Y-88797525D01*
X137428225Y-88831828D01*
X137465613Y-88876289D01*
X137516346Y-88933271D01*
X137582470Y-89005136D01*
X137666026Y-89094246D01*
X137769060Y-89202964D01*
X137874167Y-89313275D01*
X137978738Y-89422441D01*
X138076351Y-89523540D01*
X138164578Y-89614115D01*
X138240988Y-89691708D01*
X138303151Y-89753862D01*
X138348637Y-89798118D01*
X138375017Y-89822018D01*
X138380643Y-89825574D01*
X138395443Y-89812681D01*
X138430039Y-89779060D01*
X138481071Y-89728082D01*
X138545183Y-89663120D01*
X138619016Y-89587548D01*
X138672411Y-89532493D01*
X138951173Y-89244237D01*
X138129210Y-89244237D01*
X138129210Y-88926737D01*
X139131842Y-88926737D01*
X139131842Y-89068206D01*
X139315658Y-88884960D01*
X139446052Y-88754971D01*
X139700000Y-88754971D01*
X139702429Y-88775477D01*
X139714724Y-88786902D01*
X139744396Y-88791880D01*
X139798955Y-88793044D01*
X139808618Y-88793052D01*
X139917237Y-88793052D01*
X139917237Y-88501584D01*
X139808618Y-88609237D01*
X139747346Y-88674687D01*
X139710699Y-88724829D01*
X139700000Y-88754971D01*
X139446052Y-88754971D01*
X139499474Y-88701715D01*
X139499474Y-88538502D01*
X139499985Y-88463414D01*
X139502328Y-88415645D01*
X139507711Y-88389098D01*
X139517344Y-88377679D01*
X139531871Y-88375289D01*
X139548027Y-88371780D01*
X139559969Y-88357711D01*
X139569139Y-88327769D01*
X139576982Y-88276642D01*
X139584942Y-88199017D01*
X139587496Y-88170585D01*
X139593026Y-88107921D01*
X137309758Y-88107921D01*
X137154772Y-88107921D01*
X136942763Y-88107921D01*
X136942763Y-87957526D01*
X137032859Y-87957526D01*
X137085555Y-87956083D01*
X137114188Y-87949116D01*
X137117691Y-87944970D01*
X137302234Y-87944970D01*
X137311946Y-87954442D01*
X137345588Y-87957366D01*
X137368294Y-87957526D01*
X137444079Y-87957526D01*
X137726694Y-87957526D01*
X139606519Y-87957526D01*
X139542938Y-87892413D01*
X139444186Y-87812062D01*
X139321968Y-87750089D01*
X139174213Y-87705646D01*
X139027401Y-87681065D01*
X138931316Y-87669596D01*
X138931316Y-87790421D01*
X138162632Y-87790421D01*
X138162632Y-87653345D01*
X138049835Y-87664776D01*
X137971025Y-87674425D01*
X137887057Y-87687214D01*
X137836776Y-87696348D01*
X137736513Y-87716488D01*
X137731603Y-87837007D01*
X137726694Y-87957526D01*
X137444079Y-87957526D01*
X137444079Y-87890684D01*
X137441869Y-87848810D01*
X137436350Y-87825536D01*
X137434126Y-87823842D01*
X137409387Y-87834560D01*
X137373243Y-87860563D01*
X137337010Y-87892623D01*
X137312001Y-87921511D01*
X137309773Y-87925267D01*
X137302234Y-87944970D01*
X137117691Y-87944970D01*
X137128081Y-87932674D01*
X137133689Y-87914762D01*
X137156578Y-87868279D01*
X137200540Y-87812400D01*
X137258011Y-87754960D01*
X137321427Y-87703793D01*
X137363082Y-87677143D01*
X137410534Y-87647972D01*
X137434859Y-87623467D01*
X137443405Y-87594572D01*
X137444062Y-87577362D01*
X137444063Y-87573184D01*
X138296316Y-87573184D01*
X138296316Y-87656737D01*
X138797632Y-87656737D01*
X138797632Y-87573184D01*
X138296316Y-87573184D01*
X137444063Y-87573184D01*
X137444079Y-87523052D01*
X137584726Y-87523052D01*
X137649436Y-87524617D01*
X137699870Y-87528785D01*
X137727906Y-87534773D01*
X137730943Y-87537197D01*
X137748727Y-87540918D01*
X137792008Y-87539394D01*
X137853349Y-87533075D01*
X137895263Y-87527240D01*
X137971263Y-87515778D01*
X138040770Y-87505430D01*
X138093003Y-87497796D01*
X138108322Y-87495627D01*
X138148347Y-87483232D01*
X138162632Y-87463808D01*
X138166975Y-87455898D01*
X138182510Y-87449863D01*
X138212999Y-87445466D01*
X138262200Y-87442469D01*
X138333874Y-87440635D01*
X138431781Y-87439725D01*
X138546974Y-87439500D01*
X138669914Y-87439628D01*
X138763441Y-87440230D01*
X138831560Y-87441639D01*
X138878281Y-87444181D01*
X138907609Y-87448189D01*
X138923551Y-87453991D01*
X138930115Y-87461917D01*
X138931316Y-87471133D01*
X138941540Y-87500385D01*
X138975030Y-87517031D01*
X139036012Y-87522968D01*
X139046983Y-87523052D01*
X139150254Y-87533706D01*
X139267547Y-87563033D01*
X139388285Y-87607084D01*
X139501889Y-87661911D01*
X139597781Y-87723564D01*
X139610201Y-87733332D01*
X139650682Y-87765115D01*
X139674655Y-87777844D01*
X139691396Y-87773729D01*
X139708581Y-87756750D01*
X139759336Y-87723492D01*
X139825393Y-87710725D01*
X139896526Y-87717365D01*
X139962514Y-87742327D01*
X140013132Y-87784529D01*
X140016797Y-87789434D01*
X140054672Y-87868211D01*
X140061719Y-87949754D01*
X140038715Y-88027487D01*
X139986437Y-88094835D01*
X139980044Y-88100396D01*
X139942927Y-88126813D01*
X139905267Y-88138447D01*
X139852324Y-88139287D01*
X139839098Y-88138542D01*
X139787297Y-88136641D01*
X139760614Y-88140996D01*
X139750955Y-88154138D01*
X139749963Y-88166408D01*
X139747939Y-88202002D01*
X139742914Y-88255533D01*
X139739303Y-88287559D01*
X139734066Y-88338427D01*
X139736244Y-88364468D01*
X139748875Y-88373986D01*
X139771375Y-88375289D01*
X139784718Y-88370986D01*
X139806244Y-88357057D01*
X139837548Y-88331977D01*
X139880224Y-88294219D01*
X139935868Y-88242256D01*
X140006075Y-88174562D01*
X140092440Y-88089611D01*
X140196558Y-87985875D01*
X140320025Y-87861828D01*
X140464436Y-87715944D01*
X140534031Y-87645449D01*
X141254079Y-86915610D01*
X141253256Y-87031337D01*
G37*
X141253256Y-87031337D02*
X141252433Y-87147066D01*
X140652115Y-87757000D01*
X140051796Y-88366934D01*
X140051359Y-88646835D01*
X140050921Y-88926737D01*
X139685337Y-88926737D01*
X139675917Y-88997756D01*
X139672350Y-89030127D01*
X139666338Y-89091087D01*
X139658201Y-89176998D01*
X139648262Y-89284226D01*
X139636843Y-89409133D01*
X139624264Y-89548083D01*
X139610847Y-89697441D01*
X139596915Y-89853568D01*
X139582788Y-90012830D01*
X139568788Y-90171590D01*
X139555237Y-90326211D01*
X139542456Y-90473057D01*
X139530767Y-90608493D01*
X139520492Y-90728880D01*
X139511952Y-90830584D01*
X139505469Y-90909967D01*
X139501364Y-90963394D01*
X139499959Y-90987229D01*
X139499960Y-90987342D01*
X139510204Y-91006466D01*
X139540974Y-91045955D01*
X139592689Y-91106266D01*
X139665767Y-91187861D01*
X139760627Y-91291198D01*
X139877687Y-91416738D01*
X140017367Y-91564940D01*
X140180084Y-91736263D01*
X140225821Y-91784237D01*
X140951195Y-92544566D01*
X140892551Y-92603052D01*
X140833908Y-92661539D01*
X140739026Y-92558310D01*
X140704315Y-92521003D01*
X140650094Y-92463311D01*
X140579941Y-92389013D01*
X140497432Y-92301889D01*
X140406145Y-92205718D01*
X140309658Y-92104280D01*
X140251935Y-92043695D01*
X140143566Y-91930197D01*
X140055972Y-91839285D01*
X139986920Y-91769307D01*
X139934176Y-91718610D01*
X139895506Y-91685540D01*
X139868677Y-91668444D01*
X139851456Y-91665669D01*
X139841608Y-91675563D01*
X139836901Y-91696471D01*
X139835101Y-91726741D01*
X139834859Y-91735002D01*
X139822342Y-91791909D01*
X139791503Y-91860693D01*
X139748497Y-91930475D01*
X139699480Y-91990378D01*
X139679866Y-92008882D01*
X139579230Y-92073628D01*
X139461673Y-92109854D01*
X139357738Y-92118447D01*
X139239951Y-92102239D01*
X139131169Y-92054712D01*
X139034890Y-91977511D01*
X139017125Y-91958295D01*
X138952168Y-91884500D01*
X137828421Y-91884500D01*
X137828421Y-92118447D01*
X137527632Y-92118447D01*
X137527632Y-92009152D01*
X137523857Y-91934539D01*
X137511175Y-91882750D01*
X137495763Y-91854580D01*
X137484750Y-91834424D01*
X137475321Y-91805200D01*
X137466849Y-91762575D01*
X137458710Y-91702217D01*
X137450279Y-91619793D01*
X137440932Y-91510972D01*
X137434531Y-91430017D01*
X137405169Y-91050732D01*
X136684341Y-91780938D01*
X136554008Y-91913066D01*
X136428892Y-92040096D01*
X136311279Y-92159695D01*
X136203455Y-92269528D01*
X136107705Y-92367263D01*
X136026317Y-92450566D01*
X135961577Y-92517104D01*
X135915770Y-92564542D01*
X135891208Y-92590520D01*
X135850855Y-92631649D01*
X135817195Y-92660335D01*
X135799090Y-92669895D01*
X135775965Y-92658697D01*
X135742257Y-92630719D01*
X135730831Y-92619326D01*
X135682383Y-92568757D01*
X135949119Y-92297702D01*
X136017169Y-92228652D01*
X136104915Y-92139774D01*
X136208508Y-92034959D01*
X136324100Y-91918097D01*
X136447841Y-91793079D01*
X136575881Y-91663795D01*
X136704372Y-91534136D01*
X136796546Y-91441179D01*
X136936658Y-91299520D01*
X137054368Y-91179591D01*
X137151180Y-91079768D01*
X137228601Y-90998428D01*
X137288136Y-90933948D01*
X137317642Y-90900277D01*
X137554591Y-90900277D01*
X137584257Y-91279592D01*
X137593203Y-91390777D01*
X137601858Y-91492453D01*
X137609729Y-91579304D01*
X137616328Y-91646018D01*
X137621164Y-91687279D01*
X137622720Y-91696506D01*
X137631518Y-91734105D01*
X138893319Y-91734105D01*
X138901742Y-91629173D01*
X138927172Y-91505195D01*
X138980389Y-91395524D01*
X139058037Y-91304156D01*
X139156763Y-91235083D01*
X139267572Y-91193620D01*
X139303520Y-91174171D01*
X139321517Y-91132430D01*
X139321894Y-91130589D01*
X139324053Y-91112967D01*
X139321384Y-91094922D01*
X139311280Y-91073108D01*
X139291137Y-91044177D01*
X139258349Y-91004783D01*
X139210310Y-90951577D01*
X139144416Y-90881214D01*
X139058060Y-90790346D01*
X139052480Y-90784493D01*
X138959595Y-90686956D01*
X138860845Y-90583067D01*
X138763016Y-90479977D01*
X138672893Y-90384839D01*
X138597262Y-90304804D01*
X138580395Y-90286911D01*
X138515735Y-90219444D01*
X138458295Y-90161709D01*
X138412199Y-90117675D01*
X138381569Y-90091314D01*
X138371285Y-90085521D01*
X138355948Y-90097646D01*
X138320083Y-90130910D01*
X138266512Y-90182542D01*
X138198060Y-90249775D01*
X138117553Y-90329837D01*
X138027813Y-90419961D01*
X137954468Y-90494198D01*
X137554591Y-90900277D01*
X137317642Y-90900277D01*
X137331291Y-90884703D01*
X137359571Y-90849071D01*
X137374483Y-90825429D01*
X137377801Y-90814480D01*
X137376544Y-90790586D01*
X137372726Y-90736501D01*
X137366593Y-90655338D01*
X137358393Y-90550210D01*
X137348373Y-90424228D01*
X137336780Y-90280505D01*
X137323860Y-90122154D01*
X137309862Y-89952287D01*
X137298581Y-89816528D01*
X137234750Y-89051106D01*
X137398996Y-89051106D01*
X137399703Y-89067624D01*
X137403031Y-89114145D01*
X137408710Y-89187378D01*
X137416474Y-89284028D01*
X137426057Y-89400805D01*
X137437189Y-89534414D01*
X137449605Y-89681563D01*
X137461520Y-89821271D01*
X137475016Y-89979787D01*
X137487587Y-90129421D01*
X137498945Y-90266602D01*
X137508802Y-90387759D01*
X137516870Y-90489320D01*
X137522860Y-90567712D01*
X137526485Y-90619363D01*
X137527491Y-90639423D01*
X137529060Y-90651908D01*
X137535278Y-90656862D01*
X137548541Y-90652218D01*
X137571247Y-90635909D01*
X137605792Y-90605868D01*
X137654573Y-90560027D01*
X137719987Y-90496320D01*
X137804431Y-90412679D01*
X137894029Y-90323299D01*
X138260426Y-89957186D01*
X138257859Y-89954434D01*
X138500049Y-89954434D01*
X138511087Y-89969550D01*
X138541987Y-90005142D01*
X138589653Y-90057941D01*
X138650987Y-90124673D01*
X138722893Y-90202070D01*
X138802273Y-90286858D01*
X138886031Y-90375767D01*
X138971070Y-90465526D01*
X139054292Y-90552864D01*
X139132601Y-90634509D01*
X139202900Y-90707191D01*
X139262091Y-90767637D01*
X139307078Y-90812578D01*
X139334764Y-90838742D01*
X139342314Y-90844072D01*
X139344803Y-90826867D01*
X139349970Y-90779348D01*
X139357530Y-90704489D01*
X139367200Y-90605264D01*
X139378695Y-90484649D01*
X139391731Y-90345618D01*
X139406024Y-90191145D01*
X139421290Y-90024206D01*
X139433479Y-89889597D01*
X139449071Y-89715054D01*
X139463477Y-89550627D01*
X139476453Y-89399299D01*
X139487759Y-89264053D01*
X139497152Y-89147870D01*
X139504389Y-89053735D01*
X139509228Y-88984630D01*
X139511427Y-88943538D01*
X139511176Y-88932868D01*
X139498030Y-88942372D01*
X139464554Y-88972920D01*
X139413674Y-89021556D01*
X139348317Y-89085323D01*
X139271409Y-89161265D01*
X139185876Y-89246424D01*
X139094646Y-89337845D01*
X139000644Y-89432569D01*
X138906798Y-89527641D01*
X138816033Y-89620103D01*
X138731277Y-89706999D01*
X138655456Y-89785372D01*
X138591497Y-89852265D01*
X138542326Y-89904722D01*
X138510869Y-89939785D01*
X138500049Y-89954434D01*
X138257859Y-89954434D01*
X138123798Y-89810760D01*
X138054216Y-89736448D01*
X137976119Y-89653483D01*
X137892594Y-89565102D01*
X137806730Y-89474541D01*
X137721615Y-89385036D01*
X137640336Y-89299823D01*
X137565981Y-89222139D01*
X137501637Y-89155220D01*
X137450394Y-89102303D01*
X137415337Y-89066623D01*
X137399556Y-89051416D01*
X137398996Y-89051106D01*
X137234750Y-89051106D01*
X137218796Y-88859807D01*
X136420714Y-88020485D01*
X135622632Y-87181164D01*
X135623219Y-87063852D01*
X135623806Y-86946539D01*
X135752725Y-87084253D01*
X135824876Y-87161063D01*
X135910060Y-87251304D01*
X136005979Y-87352575D01*
X136110334Y-87462476D01*
X136220826Y-87578604D01*
X136335156Y-87698558D01*
X136451025Y-87819936D01*
X136566135Y-87940338D01*
X136678186Y-88057362D01*
X136784881Y-88168606D01*
X136883920Y-88271669D01*
X136973003Y-88364150D01*
X137049834Y-88443647D01*
X137112112Y-88507758D01*
X137157538Y-88554083D01*
X137183815Y-88580219D01*
X137189574Y-88585233D01*
X137189970Y-88567791D01*
X137187792Y-88523135D01*
X137183417Y-88457340D01*
X137177225Y-88376483D01*
X137174567Y-88344183D01*
X137154772Y-88107921D01*
X137309758Y-88107921D01*
X137317760Y-88145520D01*
X137321840Y-88175255D01*
X137327575Y-88231203D01*
X137334299Y-88306236D01*
X137341352Y-88393225D01*
X137343793Y-88425421D01*
X137350992Y-88517861D01*
X137358258Y-88603707D01*
X137364864Y-88674847D01*
X137370084Y-88723169D01*
X137371261Y-88731939D01*
X137375702Y-88749942D01*
X137385313Y-88771017D01*
X137402140Y-88797525D01*
X137428225Y-88831828D01*
X137465613Y-88876289D01*
X137516346Y-88933271D01*
X137582470Y-89005136D01*
X137666026Y-89094246D01*
X137769060Y-89202964D01*
X137874167Y-89313275D01*
X137978738Y-89422441D01*
X138076351Y-89523540D01*
X138164578Y-89614115D01*
X138240988Y-89691708D01*
X138303151Y-89753862D01*
X138348637Y-89798118D01*
X138375017Y-89822018D01*
X138380643Y-89825574D01*
X138395443Y-89812681D01*
X138430039Y-89779060D01*
X138481071Y-89728082D01*
X138545183Y-89663120D01*
X138619016Y-89587548D01*
X138672411Y-89532493D01*
X138951173Y-89244237D01*
X138129210Y-89244237D01*
X138129210Y-88926737D01*
X139131842Y-88926737D01*
X139131842Y-89068206D01*
X139315658Y-88884960D01*
X139446052Y-88754971D01*
X139700000Y-88754971D01*
X139702429Y-88775477D01*
X139714724Y-88786902D01*
X139744396Y-88791880D01*
X139798955Y-88793044D01*
X139808618Y-88793052D01*
X139917237Y-88793052D01*
X139917237Y-88501584D01*
X139808618Y-88609237D01*
X139747346Y-88674687D01*
X139710699Y-88724829D01*
X139700000Y-88754971D01*
X139446052Y-88754971D01*
X139499474Y-88701715D01*
X139499474Y-88538502D01*
X139499985Y-88463414D01*
X139502328Y-88415645D01*
X139507711Y-88389098D01*
X139517344Y-88377679D01*
X139531871Y-88375289D01*
X139548027Y-88371780D01*
X139559969Y-88357711D01*
X139569139Y-88327769D01*
X139576982Y-88276642D01*
X139584942Y-88199017D01*
X139587496Y-88170585D01*
X139593026Y-88107921D01*
X137309758Y-88107921D01*
X137154772Y-88107921D01*
X136942763Y-88107921D01*
X136942763Y-87957526D01*
X137032859Y-87957526D01*
X137085555Y-87956083D01*
X137114188Y-87949116D01*
X137117691Y-87944970D01*
X137302234Y-87944970D01*
X137311946Y-87954442D01*
X137345588Y-87957366D01*
X137368294Y-87957526D01*
X137444079Y-87957526D01*
X137726694Y-87957526D01*
X139606519Y-87957526D01*
X139542938Y-87892413D01*
X139444186Y-87812062D01*
X139321968Y-87750089D01*
X139174213Y-87705646D01*
X139027401Y-87681065D01*
X138931316Y-87669596D01*
X138931316Y-87790421D01*
X138162632Y-87790421D01*
X138162632Y-87653345D01*
X138049835Y-87664776D01*
X137971025Y-87674425D01*
X137887057Y-87687214D01*
X137836776Y-87696348D01*
X137736513Y-87716488D01*
X137731603Y-87837007D01*
X137726694Y-87957526D01*
X137444079Y-87957526D01*
X137444079Y-87890684D01*
X137441869Y-87848810D01*
X137436350Y-87825536D01*
X137434126Y-87823842D01*
X137409387Y-87834560D01*
X137373243Y-87860563D01*
X137337010Y-87892623D01*
X137312001Y-87921511D01*
X137309773Y-87925267D01*
X137302234Y-87944970D01*
X137117691Y-87944970D01*
X137128081Y-87932674D01*
X137133689Y-87914762D01*
X137156578Y-87868279D01*
X137200540Y-87812400D01*
X137258011Y-87754960D01*
X137321427Y-87703793D01*
X137363082Y-87677143D01*
X137410534Y-87647972D01*
X137434859Y-87623467D01*
X137443405Y-87594572D01*
X137444062Y-87577362D01*
X137444063Y-87573184D01*
X138296316Y-87573184D01*
X138296316Y-87656737D01*
X138797632Y-87656737D01*
X138797632Y-87573184D01*
X138296316Y-87573184D01*
X137444063Y-87573184D01*
X137444079Y-87523052D01*
X137584726Y-87523052D01*
X137649436Y-87524617D01*
X137699870Y-87528785D01*
X137727906Y-87534773D01*
X137730943Y-87537197D01*
X137748727Y-87540918D01*
X137792008Y-87539394D01*
X137853349Y-87533075D01*
X137895263Y-87527240D01*
X137971263Y-87515778D01*
X138040770Y-87505430D01*
X138093003Y-87497796D01*
X138108322Y-87495627D01*
X138148347Y-87483232D01*
X138162632Y-87463808D01*
X138166975Y-87455898D01*
X138182510Y-87449863D01*
X138212999Y-87445466D01*
X138262200Y-87442469D01*
X138333874Y-87440635D01*
X138431781Y-87439725D01*
X138546974Y-87439500D01*
X138669914Y-87439628D01*
X138763441Y-87440230D01*
X138831560Y-87441639D01*
X138878281Y-87444181D01*
X138907609Y-87448189D01*
X138923551Y-87453991D01*
X138930115Y-87461917D01*
X138931316Y-87471133D01*
X138941540Y-87500385D01*
X138975030Y-87517031D01*
X139036012Y-87522968D01*
X139046983Y-87523052D01*
X139150254Y-87533706D01*
X139267547Y-87563033D01*
X139388285Y-87607084D01*
X139501889Y-87661911D01*
X139597781Y-87723564D01*
X139610201Y-87733332D01*
X139650682Y-87765115D01*
X139674655Y-87777844D01*
X139691396Y-87773729D01*
X139708581Y-87756750D01*
X139759336Y-87723492D01*
X139825393Y-87710725D01*
X139896526Y-87717365D01*
X139962514Y-87742327D01*
X140013132Y-87784529D01*
X140016797Y-87789434D01*
X140054672Y-87868211D01*
X140061719Y-87949754D01*
X140038715Y-88027487D01*
X139986437Y-88094835D01*
X139980044Y-88100396D01*
X139942927Y-88126813D01*
X139905267Y-88138447D01*
X139852324Y-88139287D01*
X139839098Y-88138542D01*
X139787297Y-88136641D01*
X139760614Y-88140996D01*
X139750955Y-88154138D01*
X139749963Y-88166408D01*
X139747939Y-88202002D01*
X139742914Y-88255533D01*
X139739303Y-88287559D01*
X139734066Y-88338427D01*
X139736244Y-88364468D01*
X139748875Y-88373986D01*
X139771375Y-88375289D01*
X139784718Y-88370986D01*
X139806244Y-88357057D01*
X139837548Y-88331977D01*
X139880224Y-88294219D01*
X139935868Y-88242256D01*
X140006075Y-88174562D01*
X140092440Y-88089611D01*
X140196558Y-87985875D01*
X140320025Y-87861828D01*
X140464436Y-87715944D01*
X140534031Y-87645449D01*
X141254079Y-86915610D01*
X141253256Y-87031337D01*
G36*
X140752763Y-94942526D02*
G01*
X136073816Y-94942526D01*
X136073816Y-93789500D01*
X140752763Y-93789500D01*
X140752763Y-94942526D01*
G37*
X140752763Y-94942526D02*
X136073816Y-94942526D01*
X136073816Y-93789500D01*
X140752763Y-93789500D01*
X140752763Y-94942526D01*
D14*
%TO.C,J3*%
X99948000Y-75460000D02*
X101898000Y-75460000D01*
X104118000Y-75460000D02*
X107348000Y-75460000D01*
X109268000Y-76180000D02*
X109268000Y-77260000D01*
X109268000Y-81480000D02*
X109268000Y-82560000D01*
X104118000Y-83280000D02*
X107348000Y-83280000D01*
X99948000Y-83280000D02*
X101898000Y-83280000D01*
X109268000Y-77260000D02*
X109698000Y-77260000D01*
X99948000Y-83280000D02*
X99948000Y-75460000D01*
%TO.C,C1*%
X136196000Y-62234578D02*
X136196000Y-61717422D01*
X137616000Y-62234578D02*
X137616000Y-61717422D01*
%TO.C,C4*%
X141934000Y-59948578D02*
X141934000Y-59431422D01*
X140514000Y-59948578D02*
X140514000Y-59431422D01*
%TO.C,C5*%
X128686779Y-92712000D02*
X128361221Y-92712000D01*
X128686779Y-91692000D02*
X128361221Y-91692000D01*
%TO.C,C6*%
X131409221Y-92712000D02*
X131734779Y-92712000D01*
X131409221Y-91692000D02*
X131734779Y-91692000D01*
%TO.C,J1*%
X148142000Y-55432000D02*
X148142000Y-52772000D01*
X140462000Y-55432000D02*
X148142000Y-55432000D01*
X140462000Y-52772000D02*
X148142000Y-52772000D01*
X140462000Y-55432000D02*
X140462000Y-52772000D01*
X139192000Y-55432000D02*
X137862000Y-55432000D01*
X137862000Y-55432000D02*
X137862000Y-54102000D01*
%TO.C,J2*%
X137220000Y-73212000D02*
X135890000Y-73212000D01*
X137220000Y-71882000D02*
X137220000Y-73212000D01*
X137220000Y-70612000D02*
X134560000Y-70612000D01*
X134560000Y-70612000D02*
X134560000Y-65472000D01*
X137220000Y-70612000D02*
X137220000Y-65472000D01*
X137220000Y-65472000D02*
X134560000Y-65472000D01*
%TO.C,J5*%
X149940000Y-79268000D02*
X155910000Y-79268000D01*
X155910000Y-79268000D02*
X155910000Y-59148000D01*
X155910000Y-59148000D02*
X149940000Y-59148000D01*
X149940000Y-59148000D02*
X149940000Y-79268000D01*
X149950000Y-75958000D02*
X150700000Y-75958000D01*
X150700000Y-75958000D02*
X150700000Y-62458000D01*
X150700000Y-62458000D02*
X149950000Y-62458000D01*
X149950000Y-62458000D02*
X149950000Y-75958000D01*
X149950000Y-79258000D02*
X150700000Y-79258000D01*
X150700000Y-79258000D02*
X150700000Y-77458000D01*
X150700000Y-77458000D02*
X149950000Y-77458000D01*
X149950000Y-77458000D02*
X149950000Y-79258000D01*
X149950000Y-60958000D02*
X150700000Y-60958000D01*
X150700000Y-60958000D02*
X150700000Y-59158000D01*
X150700000Y-59158000D02*
X149950000Y-59158000D01*
X149950000Y-59158000D02*
X149950000Y-60958000D01*
X152200000Y-79258000D02*
X152200000Y-78508000D01*
X152200000Y-78508000D02*
X155150000Y-78508000D01*
X155150000Y-78508000D02*
X155150000Y-69208000D01*
X152200000Y-59158000D02*
X152200000Y-59908000D01*
X152200000Y-59908000D02*
X155150000Y-59908000D01*
X155150000Y-59908000D02*
X155150000Y-69208000D01*
X149650000Y-78308000D02*
X149650000Y-79558000D01*
X149650000Y-79558000D02*
X150900000Y-79558000D01*
%TO.C,J6*%
X115510000Y-75632000D02*
X116840000Y-75632000D01*
X115510000Y-76962000D02*
X115510000Y-75632000D01*
X115510000Y-78232000D02*
X118170000Y-78232000D01*
X118170000Y-78232000D02*
X118170000Y-85912000D01*
X115510000Y-78232000D02*
X115510000Y-85912000D01*
X115510000Y-85912000D02*
X118170000Y-85912000D01*
%TO.C,JP1*%
X114715000Y-94504000D02*
X117515000Y-94504000D01*
X117515000Y-94504000D02*
X117515000Y-96504000D01*
X117515000Y-96504000D02*
X114715000Y-96504000D01*
X114715000Y-96504000D02*
X114715000Y-94504000D01*
%TO.C,R5*%
X128268000Y-71282779D02*
X128268000Y-70957221D01*
X129288000Y-71282779D02*
X129288000Y-70957221D01*
%TO.C,R6*%
X130812000Y-71282779D02*
X130812000Y-70957221D01*
X129792000Y-71282779D02*
X129792000Y-70957221D01*
%TO.C,U1*%
X145142000Y-61940000D02*
X145142000Y-67950000D01*
X138322000Y-64190000D02*
X138322000Y-67950000D01*
X145142000Y-67950000D02*
X143882000Y-67950000D01*
X138322000Y-67950000D02*
X139582000Y-67950000D01*
%TO.C,U2*%
X134166000Y-76850000D02*
X134166000Y-76400000D01*
X134166000Y-76400000D02*
X133716000Y-76400000D01*
X134166000Y-83170000D02*
X134166000Y-83620000D01*
X134166000Y-83620000D02*
X133716000Y-83620000D01*
X126946000Y-76850000D02*
X126946000Y-76400000D01*
X126946000Y-76400000D02*
X127396000Y-76400000D01*
X126946000Y-83170000D02*
X126946000Y-83620000D01*
X126946000Y-83620000D02*
X127396000Y-83620000D01*
X127396000Y-83620000D02*
X127396000Y-84910000D01*
%TO.C,Y1*%
X132748000Y-87608000D02*
X126998000Y-87608000D01*
X126998000Y-87608000D02*
X126998000Y-91208000D01*
X126998000Y-91208000D02*
X132748000Y-91208000D01*
%TO.C,J4*%
X145856000Y-73600000D02*
X143196000Y-73600000D01*
X145856000Y-88900000D02*
X145856000Y-73600000D01*
X143196000Y-88900000D02*
X143196000Y-73600000D01*
X145856000Y-88900000D02*
X143196000Y-88900000D01*
X145856000Y-90170000D02*
X145856000Y-91500000D01*
X145856000Y-91500000D02*
X144526000Y-91500000D01*
%TD*%
%TO.C,J3*%
D11*
X110310380Y-79703333D02*
X111024666Y-79703333D01*
X111167523Y-79750952D01*
X111262761Y-79846190D01*
X111310380Y-79989047D01*
X111310380Y-80084285D01*
X110310380Y-79322380D02*
X110310380Y-78703333D01*
X110691333Y-79036666D01*
X110691333Y-78893809D01*
X110738952Y-78798571D01*
X110786571Y-78750952D01*
X110881809Y-78703333D01*
X111119904Y-78703333D01*
X111215142Y-78750952D01*
X111262761Y-78798571D01*
X111310380Y-78893809D01*
X111310380Y-79179523D01*
X111262761Y-79274761D01*
X111215142Y-79322380D01*
%TO.C,C1*%
X135613142Y-62142666D02*
X135660761Y-62190285D01*
X135708380Y-62333142D01*
X135708380Y-62428380D01*
X135660761Y-62571238D01*
X135565523Y-62666476D01*
X135470285Y-62714095D01*
X135279809Y-62761714D01*
X135136952Y-62761714D01*
X134946476Y-62714095D01*
X134851238Y-62666476D01*
X134756000Y-62571238D01*
X134708380Y-62428380D01*
X134708380Y-62333142D01*
X134756000Y-62190285D01*
X134803619Y-62142666D01*
X135708380Y-61190285D02*
X135708380Y-61761714D01*
X135708380Y-61476000D02*
X134708380Y-61476000D01*
X134851238Y-61571238D01*
X134946476Y-61666476D01*
X134994095Y-61761714D01*
%TO.C,C2*%
X139803142Y-58586666D02*
X139850761Y-58634285D01*
X139898380Y-58777142D01*
X139898380Y-58872380D01*
X139850761Y-59015238D01*
X139755523Y-59110476D01*
X139660285Y-59158095D01*
X139469809Y-59205714D01*
X139326952Y-59205714D01*
X139136476Y-59158095D01*
X139041238Y-59110476D01*
X138946000Y-59015238D01*
X138898380Y-58872380D01*
X138898380Y-58777142D01*
X138946000Y-58634285D01*
X138993619Y-58586666D01*
X138993619Y-58205714D02*
X138946000Y-58158095D01*
X138898380Y-58062857D01*
X138898380Y-57824761D01*
X138946000Y-57729523D01*
X138993619Y-57681904D01*
X139088857Y-57634285D01*
X139184095Y-57634285D01*
X139326952Y-57681904D01*
X139898380Y-58253333D01*
X139898380Y-57634285D01*
%TO.C,C3*%
X143089333Y-60147142D02*
X143041714Y-60194761D01*
X142898857Y-60242380D01*
X142803619Y-60242380D01*
X142660761Y-60194761D01*
X142565523Y-60099523D01*
X142517904Y-60004285D01*
X142470285Y-59813809D01*
X142470285Y-59670952D01*
X142517904Y-59480476D01*
X142565523Y-59385238D01*
X142660761Y-59290000D01*
X142803619Y-59242380D01*
X142898857Y-59242380D01*
X143041714Y-59290000D01*
X143089333Y-59337619D01*
X143422666Y-59242380D02*
X144041714Y-59242380D01*
X143708380Y-59623333D01*
X143851238Y-59623333D01*
X143946476Y-59670952D01*
X143994095Y-59718571D01*
X144041714Y-59813809D01*
X144041714Y-60051904D01*
X143994095Y-60147142D01*
X143946476Y-60194761D01*
X143851238Y-60242380D01*
X143565523Y-60242380D01*
X143470285Y-60194761D01*
X143422666Y-60147142D01*
%TO.C,C4*%
X141581142Y-57062666D02*
X141628761Y-57110285D01*
X141676380Y-57253142D01*
X141676380Y-57348380D01*
X141628761Y-57491238D01*
X141533523Y-57586476D01*
X141438285Y-57634095D01*
X141247809Y-57681714D01*
X141104952Y-57681714D01*
X140914476Y-57634095D01*
X140819238Y-57586476D01*
X140724000Y-57491238D01*
X140676380Y-57348380D01*
X140676380Y-57253142D01*
X140724000Y-57110285D01*
X140771619Y-57062666D01*
X141009714Y-56205523D02*
X141676380Y-56205523D01*
X140628761Y-56443619D02*
X141343047Y-56681714D01*
X141343047Y-56062666D01*
%TO.C,C5*%
X128357333Y-93989142D02*
X128309714Y-94036761D01*
X128166857Y-94084380D01*
X128071619Y-94084380D01*
X127928761Y-94036761D01*
X127833523Y-93941523D01*
X127785904Y-93846285D01*
X127738285Y-93655809D01*
X127738285Y-93512952D01*
X127785904Y-93322476D01*
X127833523Y-93227238D01*
X127928761Y-93132000D01*
X128071619Y-93084380D01*
X128166857Y-93084380D01*
X128309714Y-93132000D01*
X128357333Y-93179619D01*
X129262095Y-93084380D02*
X128785904Y-93084380D01*
X128738285Y-93560571D01*
X128785904Y-93512952D01*
X128881142Y-93465333D01*
X129119238Y-93465333D01*
X129214476Y-93512952D01*
X129262095Y-93560571D01*
X129309714Y-93655809D01*
X129309714Y-93893904D01*
X129262095Y-93989142D01*
X129214476Y-94036761D01*
X129119238Y-94084380D01*
X128881142Y-94084380D01*
X128785904Y-94036761D01*
X128738285Y-93989142D01*
%TO.C,C6*%
X131405333Y-94083142D02*
X131357714Y-94130761D01*
X131214857Y-94178380D01*
X131119619Y-94178380D01*
X130976761Y-94130761D01*
X130881523Y-94035523D01*
X130833904Y-93940285D01*
X130786285Y-93749809D01*
X130786285Y-93606952D01*
X130833904Y-93416476D01*
X130881523Y-93321238D01*
X130976761Y-93226000D01*
X131119619Y-93178380D01*
X131214857Y-93178380D01*
X131357714Y-93226000D01*
X131405333Y-93273619D01*
X132262476Y-93178380D02*
X132072000Y-93178380D01*
X131976761Y-93226000D01*
X131929142Y-93273619D01*
X131833904Y-93416476D01*
X131786285Y-93606952D01*
X131786285Y-93987904D01*
X131833904Y-94083142D01*
X131881523Y-94130761D01*
X131976761Y-94178380D01*
X132167238Y-94178380D01*
X132262476Y-94130761D01*
X132310095Y-94083142D01*
X132357714Y-93987904D01*
X132357714Y-93749809D01*
X132310095Y-93654571D01*
X132262476Y-93606952D01*
X132167238Y-93559333D01*
X131976761Y-93559333D01*
X131881523Y-93606952D01*
X131833904Y-93654571D01*
X131786285Y-93749809D01*
%TO.C,C7*%
X126060142Y-75350666D02*
X126107761Y-75398285D01*
X126155380Y-75541142D01*
X126155380Y-75636380D01*
X126107761Y-75779238D01*
X126012523Y-75874476D01*
X125917285Y-75922095D01*
X125726809Y-75969714D01*
X125583952Y-75969714D01*
X125393476Y-75922095D01*
X125298238Y-75874476D01*
X125203000Y-75779238D01*
X125155380Y-75636380D01*
X125155380Y-75541142D01*
X125203000Y-75398285D01*
X125250619Y-75350666D01*
X125155380Y-75017333D02*
X125155380Y-74350666D01*
X126155380Y-74779238D01*
%TO.C,C8*%
X130135333Y-86463142D02*
X130087714Y-86510761D01*
X129944857Y-86558380D01*
X129849619Y-86558380D01*
X129706761Y-86510761D01*
X129611523Y-86415523D01*
X129563904Y-86320285D01*
X129516285Y-86129809D01*
X129516285Y-85986952D01*
X129563904Y-85796476D01*
X129611523Y-85701238D01*
X129706761Y-85606000D01*
X129849619Y-85558380D01*
X129944857Y-85558380D01*
X130087714Y-85606000D01*
X130135333Y-85653619D01*
X130706761Y-85986952D02*
X130611523Y-85939333D01*
X130563904Y-85891714D01*
X130516285Y-85796476D01*
X130516285Y-85748857D01*
X130563904Y-85653619D01*
X130611523Y-85606000D01*
X130706761Y-85558380D01*
X130897238Y-85558380D01*
X130992476Y-85606000D01*
X131040095Y-85653619D01*
X131087714Y-85748857D01*
X131087714Y-85796476D01*
X131040095Y-85891714D01*
X130992476Y-85939333D01*
X130897238Y-85986952D01*
X130706761Y-85986952D01*
X130611523Y-86034571D01*
X130563904Y-86082190D01*
X130516285Y-86177428D01*
X130516285Y-86367904D01*
X130563904Y-86463142D01*
X130611523Y-86510761D01*
X130706761Y-86558380D01*
X130897238Y-86558380D01*
X130992476Y-86510761D01*
X131040095Y-86463142D01*
X131087714Y-86367904D01*
X131087714Y-86177428D01*
X131040095Y-86082190D01*
X130992476Y-86034571D01*
X130897238Y-85986952D01*
%TO.C,C9*%
X125563333Y-85220142D02*
X125515714Y-85267761D01*
X125372857Y-85315380D01*
X125277619Y-85315380D01*
X125134761Y-85267761D01*
X125039523Y-85172523D01*
X124991904Y-85077285D01*
X124944285Y-84886809D01*
X124944285Y-84743952D01*
X124991904Y-84553476D01*
X125039523Y-84458238D01*
X125134761Y-84363000D01*
X125277619Y-84315380D01*
X125372857Y-84315380D01*
X125515714Y-84363000D01*
X125563333Y-84410619D01*
X126039523Y-85315380D02*
X126230000Y-85315380D01*
X126325238Y-85267761D01*
X126372857Y-85220142D01*
X126468095Y-85077285D01*
X126515714Y-84886809D01*
X126515714Y-84505857D01*
X126468095Y-84410619D01*
X126420476Y-84363000D01*
X126325238Y-84315380D01*
X126134761Y-84315380D01*
X126039523Y-84363000D01*
X125991904Y-84410619D01*
X125944285Y-84505857D01*
X125944285Y-84743952D01*
X125991904Y-84839190D01*
X126039523Y-84886809D01*
X126134761Y-84934428D01*
X126325238Y-84934428D01*
X126420476Y-84886809D01*
X126468095Y-84839190D01*
X126515714Y-84743952D01*
%TO.C,C10*%
X136501142Y-76461857D02*
X136548761Y-76509476D01*
X136596380Y-76652333D01*
X136596380Y-76747571D01*
X136548761Y-76890428D01*
X136453523Y-76985666D01*
X136358285Y-77033285D01*
X136167809Y-77080904D01*
X136024952Y-77080904D01*
X135834476Y-77033285D01*
X135739238Y-76985666D01*
X135644000Y-76890428D01*
X135596380Y-76747571D01*
X135596380Y-76652333D01*
X135644000Y-76509476D01*
X135691619Y-76461857D01*
X136596380Y-75509476D02*
X136596380Y-76080904D01*
X136596380Y-75795190D02*
X135596380Y-75795190D01*
X135739238Y-75890428D01*
X135834476Y-75985666D01*
X135882095Y-76080904D01*
X135596380Y-74890428D02*
X135596380Y-74795190D01*
X135644000Y-74699952D01*
X135691619Y-74652333D01*
X135786857Y-74604714D01*
X135977333Y-74557095D01*
X136215428Y-74557095D01*
X136405904Y-74604714D01*
X136501142Y-74652333D01*
X136548761Y-74699952D01*
X136596380Y-74795190D01*
X136596380Y-74890428D01*
X136548761Y-74985666D01*
X136501142Y-75033285D01*
X136405904Y-75080904D01*
X136215428Y-75128523D01*
X135977333Y-75128523D01*
X135786857Y-75080904D01*
X135691619Y-75033285D01*
X135644000Y-74985666D01*
X135596380Y-74890428D01*
%TO.C,J1*%
X136314380Y-54435333D02*
X137028666Y-54435333D01*
X137171523Y-54482952D01*
X137266761Y-54578190D01*
X137314380Y-54721047D01*
X137314380Y-54816285D01*
X137314380Y-53435333D02*
X137314380Y-54006761D01*
X137314380Y-53721047D02*
X136314380Y-53721047D01*
X136457238Y-53816285D01*
X136552476Y-53911523D01*
X136600095Y-54006761D01*
%TO.C,J2*%
X133016666Y-72096380D02*
X133016666Y-72810666D01*
X132969047Y-72953523D01*
X132873809Y-73048761D01*
X132730952Y-73096380D01*
X132635714Y-73096380D01*
X133445238Y-72191619D02*
X133492857Y-72144000D01*
X133588095Y-72096380D01*
X133826190Y-72096380D01*
X133921428Y-72144000D01*
X133969047Y-72191619D01*
X134016666Y-72286857D01*
X134016666Y-72382095D01*
X133969047Y-72524952D01*
X133397619Y-73096380D01*
X134016666Y-73096380D01*
%TO.C,J5*%
X148302380Y-69541333D02*
X149016666Y-69541333D01*
X149159523Y-69588952D01*
X149254761Y-69684190D01*
X149302380Y-69827047D01*
X149302380Y-69922285D01*
X148302380Y-68588952D02*
X148302380Y-69065142D01*
X148778571Y-69112761D01*
X148730952Y-69065142D01*
X148683333Y-68969904D01*
X148683333Y-68731809D01*
X148730952Y-68636571D01*
X148778571Y-68588952D01*
X148873809Y-68541333D01*
X149111904Y-68541333D01*
X149207142Y-68588952D01*
X149254761Y-68636571D01*
X149302380Y-68731809D01*
X149302380Y-68969904D01*
X149254761Y-69065142D01*
X149207142Y-69112761D01*
%TO.C,J6*%
X116506666Y-74084380D02*
X116506666Y-74798666D01*
X116459047Y-74941523D01*
X116363809Y-75036761D01*
X116220952Y-75084380D01*
X116125714Y-75084380D01*
X117411428Y-74084380D02*
X117220952Y-74084380D01*
X117125714Y-74132000D01*
X117078095Y-74179619D01*
X116982857Y-74322476D01*
X116935238Y-74512952D01*
X116935238Y-74893904D01*
X116982857Y-74989142D01*
X117030476Y-75036761D01*
X117125714Y-75084380D01*
X117316190Y-75084380D01*
X117411428Y-75036761D01*
X117459047Y-74989142D01*
X117506666Y-74893904D01*
X117506666Y-74655809D01*
X117459047Y-74560571D01*
X117411428Y-74512952D01*
X117316190Y-74465333D01*
X117125714Y-74465333D01*
X117030476Y-74512952D01*
X116982857Y-74560571D01*
X116935238Y-74655809D01*
%TO.C,JP1*%
X115281666Y-93156380D02*
X115281666Y-93870666D01*
X115234047Y-94013523D01*
X115138809Y-94108761D01*
X114995952Y-94156380D01*
X114900714Y-94156380D01*
X115757857Y-94156380D02*
X115757857Y-93156380D01*
X116138809Y-93156380D01*
X116234047Y-93204000D01*
X116281666Y-93251619D01*
X116329285Y-93346857D01*
X116329285Y-93489714D01*
X116281666Y-93584952D01*
X116234047Y-93632571D01*
X116138809Y-93680190D01*
X115757857Y-93680190D01*
X117281666Y-94156380D02*
X116710238Y-94156380D01*
X116995952Y-94156380D02*
X116995952Y-93156380D01*
X116900714Y-93299238D01*
X116805476Y-93394476D01*
X116710238Y-93442095D01*
%TO.C,R1*%
X122753380Y-78525666D02*
X122277190Y-78859000D01*
X122753380Y-79097095D02*
X121753380Y-79097095D01*
X121753380Y-78716142D01*
X121801000Y-78620904D01*
X121848619Y-78573285D01*
X121943857Y-78525666D01*
X122086714Y-78525666D01*
X122181952Y-78573285D01*
X122229571Y-78620904D01*
X122277190Y-78716142D01*
X122277190Y-79097095D01*
X122753380Y-77573285D02*
X122753380Y-78144714D01*
X122753380Y-77859000D02*
X121753380Y-77859000D01*
X121896238Y-77954238D01*
X121991476Y-78049476D01*
X122039095Y-78144714D01*
%TO.C,R2*%
X138374380Y-78652666D02*
X137898190Y-78986000D01*
X138374380Y-79224095D02*
X137374380Y-79224095D01*
X137374380Y-78843142D01*
X137422000Y-78747904D01*
X137469619Y-78700285D01*
X137564857Y-78652666D01*
X137707714Y-78652666D01*
X137802952Y-78700285D01*
X137850571Y-78747904D01*
X137898190Y-78843142D01*
X137898190Y-79224095D01*
X137469619Y-78271714D02*
X137422000Y-78224095D01*
X137374380Y-78128857D01*
X137374380Y-77890761D01*
X137422000Y-77795523D01*
X137469619Y-77747904D01*
X137564857Y-77700285D01*
X137660095Y-77700285D01*
X137802952Y-77747904D01*
X138374380Y-78319333D01*
X138374380Y-77700285D01*
%TO.C,R3*%
X127849333Y-95702380D02*
X127516000Y-95226190D01*
X127277904Y-95702380D02*
X127277904Y-94702380D01*
X127658857Y-94702380D01*
X127754095Y-94750000D01*
X127801714Y-94797619D01*
X127849333Y-94892857D01*
X127849333Y-95035714D01*
X127801714Y-95130952D01*
X127754095Y-95178571D01*
X127658857Y-95226190D01*
X127277904Y-95226190D01*
X128182666Y-94702380D02*
X128801714Y-94702380D01*
X128468380Y-95083333D01*
X128611238Y-95083333D01*
X128706476Y-95130952D01*
X128754095Y-95178571D01*
X128801714Y-95273809D01*
X128801714Y-95511904D01*
X128754095Y-95607142D01*
X128706476Y-95654761D01*
X128611238Y-95702380D01*
X128325523Y-95702380D01*
X128230285Y-95654761D01*
X128182666Y-95607142D01*
%TO.C,R4*%
X126690380Y-71794666D02*
X126214190Y-72128000D01*
X126690380Y-72366095D02*
X125690380Y-72366095D01*
X125690380Y-71985142D01*
X125738000Y-71889904D01*
X125785619Y-71842285D01*
X125880857Y-71794666D01*
X126023714Y-71794666D01*
X126118952Y-71842285D01*
X126166571Y-71889904D01*
X126214190Y-71985142D01*
X126214190Y-72366095D01*
X126023714Y-70937523D02*
X126690380Y-70937523D01*
X125642761Y-71175619D02*
X126357047Y-71413714D01*
X126357047Y-70794666D01*
%TO.C,R5*%
X129230380Y-68492666D02*
X128754190Y-68826000D01*
X129230380Y-69064095D02*
X128230380Y-69064095D01*
X128230380Y-68683142D01*
X128278000Y-68587904D01*
X128325619Y-68540285D01*
X128420857Y-68492666D01*
X128563714Y-68492666D01*
X128658952Y-68540285D01*
X128706571Y-68587904D01*
X128754190Y-68683142D01*
X128754190Y-69064095D01*
X128230380Y-67587904D02*
X128230380Y-68064095D01*
X128706571Y-68111714D01*
X128658952Y-68064095D01*
X128611333Y-67968857D01*
X128611333Y-67730761D01*
X128658952Y-67635523D01*
X128706571Y-67587904D01*
X128801809Y-67540285D01*
X129039904Y-67540285D01*
X129135142Y-67587904D01*
X129182761Y-67635523D01*
X129230380Y-67730761D01*
X129230380Y-67968857D01*
X129182761Y-68064095D01*
X129135142Y-68111714D01*
%TO.C,R6*%
X130754380Y-68492666D02*
X130278190Y-68826000D01*
X130754380Y-69064095D02*
X129754380Y-69064095D01*
X129754380Y-68683142D01*
X129802000Y-68587904D01*
X129849619Y-68540285D01*
X129944857Y-68492666D01*
X130087714Y-68492666D01*
X130182952Y-68540285D01*
X130230571Y-68587904D01*
X130278190Y-68683142D01*
X130278190Y-69064095D01*
X129754380Y-67635523D02*
X129754380Y-67826000D01*
X129802000Y-67921238D01*
X129849619Y-67968857D01*
X129992476Y-68064095D01*
X130182952Y-68111714D01*
X130563904Y-68111714D01*
X130659142Y-68064095D01*
X130706761Y-68016476D01*
X130754380Y-67921238D01*
X130754380Y-67730761D01*
X130706761Y-67635523D01*
X130659142Y-67587904D01*
X130563904Y-67540285D01*
X130325809Y-67540285D01*
X130230571Y-67587904D01*
X130182952Y-67635523D01*
X130135333Y-67730761D01*
X130135333Y-67921238D01*
X130182952Y-68016476D01*
X130230571Y-68064095D01*
X130325809Y-68111714D01*
%TO.C,U1*%
X145684380Y-66801904D02*
X146493904Y-66801904D01*
X146589142Y-66754285D01*
X146636761Y-66706666D01*
X146684380Y-66611428D01*
X146684380Y-66420952D01*
X146636761Y-66325714D01*
X146589142Y-66278095D01*
X146493904Y-66230476D01*
X145684380Y-66230476D01*
X146684380Y-65230476D02*
X146684380Y-65801904D01*
X146684380Y-65516190D02*
X145684380Y-65516190D01*
X145827238Y-65611428D01*
X145922476Y-65706666D01*
X145970095Y-65801904D01*
%TO.C,U2*%
X124158380Y-80771904D02*
X124967904Y-80771904D01*
X125063142Y-80724285D01*
X125110761Y-80676666D01*
X125158380Y-80581428D01*
X125158380Y-80390952D01*
X125110761Y-80295714D01*
X125063142Y-80248095D01*
X124967904Y-80200476D01*
X124158380Y-80200476D01*
X124253619Y-79771904D02*
X124206000Y-79724285D01*
X124158380Y-79629047D01*
X124158380Y-79390952D01*
X124206000Y-79295714D01*
X124253619Y-79248095D01*
X124348857Y-79200476D01*
X124444095Y-79200476D01*
X124586952Y-79248095D01*
X125158380Y-79819523D01*
X125158380Y-79200476D01*
%TO.C,Y1*%
X125507809Y-89384190D02*
X125507809Y-89860380D01*
X125174476Y-88860380D02*
X125507809Y-89384190D01*
X125841142Y-88860380D01*
X126698285Y-89860380D02*
X126126857Y-89860380D01*
X126412571Y-89860380D02*
X126412571Y-88860380D01*
X126317333Y-89003238D01*
X126222095Y-89098476D01*
X126126857Y-89146095D01*
%TO.C,C11*%
X134993142Y-85982142D02*
X134945523Y-86029761D01*
X134802666Y-86077380D01*
X134707428Y-86077380D01*
X134564571Y-86029761D01*
X134469333Y-85934523D01*
X134421714Y-85839285D01*
X134374095Y-85648809D01*
X134374095Y-85505952D01*
X134421714Y-85315476D01*
X134469333Y-85220238D01*
X134564571Y-85125000D01*
X134707428Y-85077380D01*
X134802666Y-85077380D01*
X134945523Y-85125000D01*
X134993142Y-85172619D01*
X135945523Y-86077380D02*
X135374095Y-86077380D01*
X135659809Y-86077380D02*
X135659809Y-85077380D01*
X135564571Y-85220238D01*
X135469333Y-85315476D01*
X135374095Y-85363095D01*
X136897904Y-86077380D02*
X136326476Y-86077380D01*
X136612190Y-86077380D02*
X136612190Y-85077380D01*
X136516952Y-85220238D01*
X136421714Y-85315476D01*
X136326476Y-85363095D01*
%TO.C,J4*%
X144192666Y-91952380D02*
X144192666Y-92666666D01*
X144145047Y-92809523D01*
X144049809Y-92904761D01*
X143906952Y-92952380D01*
X143811714Y-92952380D01*
X145097428Y-92285714D02*
X145097428Y-92952380D01*
X144859333Y-91904761D02*
X144621238Y-92619047D01*
X145240285Y-92619047D01*
%TD*%
M02*
