%TF.GenerationSoftware,KiCad,Pcbnew,(5.1.6)-1*%
%TF.CreationDate,2020-06-10T16:57:24-05:00*%
%TF.ProjectId,GameVision50 Redesign,47616d65-5669-4736-996f-6e3530205265,rev?*%
%TF.SameCoordinates,Original*%
%TF.FileFunction,Paste,Top*%
%TF.FilePolarity,Positive*%
%FSLAX46Y46*%
G04 Gerber Fmt 4.6, Leading zero omitted, Abs format (unit mm)*
G04 Created by KiCad (PCBNEW (5.1.6)-1) date 2020-06-10 16:57:24*
%MOMM*%
%LPD*%
G01*
G04 APERTURE LIST*
%TA.AperFunction,Profile*%
%ADD10C,0.050000*%
%TD*%
%ADD11R,1.700000X2.000000*%
%ADD12R,2.000000X0.500000*%
%ADD13R,1.500000X2.000000*%
%ADD14R,3.800000X2.000000*%
%ADD15R,2.000000X2.400000*%
G04 APERTURE END LIST*
D10*
X116332000Y-50800000D02*
X156464000Y-50800000D01*
X101600000Y-67564000D02*
X116332000Y-50800000D01*
X101600000Y-110744000D02*
X101600000Y-67564000D01*
X137668000Y-110744000D02*
X101600000Y-110744000D01*
X156464000Y-80772000D02*
X137668000Y-110744000D01*
X156464000Y-50800000D02*
X156464000Y-80772000D01*
D11*
%TO.C,J3*%
X103008000Y-83820000D03*
X108458000Y-83820000D03*
X103008000Y-74920000D03*
X108458000Y-74920000D03*
D12*
X108558000Y-80970000D03*
X108558000Y-80170000D03*
X108558000Y-79370000D03*
X108558000Y-78570000D03*
X108558000Y-77770000D03*
%TD*%
%TO.C,C1*%
G36*
G01*
X137362250Y-63401000D02*
X136449750Y-63401000D01*
G75*
G02*
X136206000Y-63157250I0J243750D01*
G01*
X136206000Y-62669750D01*
G75*
G02*
X136449750Y-62426000I243750J0D01*
G01*
X137362250Y-62426000D01*
G75*
G02*
X137606000Y-62669750I0J-243750D01*
G01*
X137606000Y-63157250D01*
G75*
G02*
X137362250Y-63401000I-243750J0D01*
G01*
G37*
G36*
G01*
X137362250Y-61526000D02*
X136449750Y-61526000D01*
G75*
G02*
X136206000Y-61282250I0J243750D01*
G01*
X136206000Y-60794750D01*
G75*
G02*
X136449750Y-60551000I243750J0D01*
G01*
X137362250Y-60551000D01*
G75*
G02*
X137606000Y-60794750I0J-243750D01*
G01*
X137606000Y-61282250D01*
G75*
G02*
X137362250Y-61526000I-243750J0D01*
G01*
G37*
%TD*%
%TO.C,C2*%
G36*
G01*
X139618500Y-61232000D02*
X139273500Y-61232000D01*
G75*
G02*
X139126000Y-61084500I0J147500D01*
G01*
X139126000Y-60789500D01*
G75*
G02*
X139273500Y-60642000I147500J0D01*
G01*
X139618500Y-60642000D01*
G75*
G02*
X139766000Y-60789500I0J-147500D01*
G01*
X139766000Y-61084500D01*
G75*
G02*
X139618500Y-61232000I-147500J0D01*
G01*
G37*
G36*
G01*
X139618500Y-60262000D02*
X139273500Y-60262000D01*
G75*
G02*
X139126000Y-60114500I0J147500D01*
G01*
X139126000Y-59819500D01*
G75*
G02*
X139273500Y-59672000I147500J0D01*
G01*
X139618500Y-59672000D01*
G75*
G02*
X139766000Y-59819500I0J-147500D01*
G01*
X139766000Y-60114500D01*
G75*
G02*
X139618500Y-60262000I-147500J0D01*
G01*
G37*
%TD*%
%TO.C,C3*%
G36*
G01*
X143446000Y-61132500D02*
X143446000Y-60787500D01*
G75*
G02*
X143593500Y-60640000I147500J0D01*
G01*
X143888500Y-60640000D01*
G75*
G02*
X144036000Y-60787500I0J-147500D01*
G01*
X144036000Y-61132500D01*
G75*
G02*
X143888500Y-61280000I-147500J0D01*
G01*
X143593500Y-61280000D01*
G75*
G02*
X143446000Y-61132500I0J147500D01*
G01*
G37*
G36*
G01*
X142476000Y-61132500D02*
X142476000Y-60787500D01*
G75*
G02*
X142623500Y-60640000I147500J0D01*
G01*
X142918500Y-60640000D01*
G75*
G02*
X143066000Y-60787500I0J-147500D01*
G01*
X143066000Y-61132500D01*
G75*
G02*
X142918500Y-61280000I-147500J0D01*
G01*
X142623500Y-61280000D01*
G75*
G02*
X142476000Y-61132500I0J147500D01*
G01*
G37*
%TD*%
%TO.C,C4*%
G36*
G01*
X141680250Y-59240000D02*
X140767750Y-59240000D01*
G75*
G02*
X140524000Y-58996250I0J243750D01*
G01*
X140524000Y-58508750D01*
G75*
G02*
X140767750Y-58265000I243750J0D01*
G01*
X141680250Y-58265000D01*
G75*
G02*
X141924000Y-58508750I0J-243750D01*
G01*
X141924000Y-58996250D01*
G75*
G02*
X141680250Y-59240000I-243750J0D01*
G01*
G37*
G36*
G01*
X141680250Y-61115000D02*
X140767750Y-61115000D01*
G75*
G02*
X140524000Y-60871250I0J243750D01*
G01*
X140524000Y-60383750D01*
G75*
G02*
X140767750Y-60140000I243750J0D01*
G01*
X141680250Y-60140000D01*
G75*
G02*
X141924000Y-60383750I0J-243750D01*
G01*
X141924000Y-60871250D01*
G75*
G02*
X141680250Y-61115000I-243750J0D01*
G01*
G37*
%TD*%
%TO.C,C5*%
G36*
G01*
X129749000Y-91945750D02*
X129749000Y-92458250D01*
G75*
G02*
X129530250Y-92677000I-218750J0D01*
G01*
X129092750Y-92677000D01*
G75*
G02*
X128874000Y-92458250I0J218750D01*
G01*
X128874000Y-91945750D01*
G75*
G02*
X129092750Y-91727000I218750J0D01*
G01*
X129530250Y-91727000D01*
G75*
G02*
X129749000Y-91945750I0J-218750D01*
G01*
G37*
G36*
G01*
X128174000Y-91945750D02*
X128174000Y-92458250D01*
G75*
G02*
X127955250Y-92677000I-218750J0D01*
G01*
X127517750Y-92677000D01*
G75*
G02*
X127299000Y-92458250I0J218750D01*
G01*
X127299000Y-91945750D01*
G75*
G02*
X127517750Y-91727000I218750J0D01*
G01*
X127955250Y-91727000D01*
G75*
G02*
X128174000Y-91945750I0J-218750D01*
G01*
G37*
%TD*%
%TO.C,C6*%
G36*
G01*
X131922000Y-92458250D02*
X131922000Y-91945750D01*
G75*
G02*
X132140750Y-91727000I218750J0D01*
G01*
X132578250Y-91727000D01*
G75*
G02*
X132797000Y-91945750I0J-218750D01*
G01*
X132797000Y-92458250D01*
G75*
G02*
X132578250Y-92677000I-218750J0D01*
G01*
X132140750Y-92677000D01*
G75*
G02*
X131922000Y-92458250I0J218750D01*
G01*
G37*
G36*
G01*
X130347000Y-92458250D02*
X130347000Y-91945750D01*
G75*
G02*
X130565750Y-91727000I218750J0D01*
G01*
X131003250Y-91727000D01*
G75*
G02*
X131222000Y-91945750I0J-218750D01*
G01*
X131222000Y-92458250D01*
G75*
G02*
X131003250Y-92677000I-218750J0D01*
G01*
X130565750Y-92677000D01*
G75*
G02*
X130347000Y-92458250I0J218750D01*
G01*
G37*
%TD*%
%TO.C,C7*%
G36*
G01*
X127045500Y-74994000D02*
X126700500Y-74994000D01*
G75*
G02*
X126553000Y-74846500I0J147500D01*
G01*
X126553000Y-74551500D01*
G75*
G02*
X126700500Y-74404000I147500J0D01*
G01*
X127045500Y-74404000D01*
G75*
G02*
X127193000Y-74551500I0J-147500D01*
G01*
X127193000Y-74846500D01*
G75*
G02*
X127045500Y-74994000I-147500J0D01*
G01*
G37*
G36*
G01*
X127045500Y-75964000D02*
X126700500Y-75964000D01*
G75*
G02*
X126553000Y-75816500I0J147500D01*
G01*
X126553000Y-75521500D01*
G75*
G02*
X126700500Y-75374000I147500J0D01*
G01*
X127045500Y-75374000D01*
G75*
G02*
X127193000Y-75521500I0J-147500D01*
G01*
X127193000Y-75816500D01*
G75*
G02*
X127045500Y-75964000I-147500J0D01*
G01*
G37*
%TD*%
%TO.C,C8*%
G36*
G01*
X132524000Y-86024500D02*
X132524000Y-85679500D01*
G75*
G02*
X132671500Y-85532000I147500J0D01*
G01*
X132966500Y-85532000D01*
G75*
G02*
X133114000Y-85679500I0J-147500D01*
G01*
X133114000Y-86024500D01*
G75*
G02*
X132966500Y-86172000I-147500J0D01*
G01*
X132671500Y-86172000D01*
G75*
G02*
X132524000Y-86024500I0J147500D01*
G01*
G37*
G36*
G01*
X131554000Y-86024500D02*
X131554000Y-85679500D01*
G75*
G02*
X131701500Y-85532000I147500J0D01*
G01*
X131996500Y-85532000D01*
G75*
G02*
X132144000Y-85679500I0J-147500D01*
G01*
X132144000Y-86024500D01*
G75*
G02*
X131996500Y-86172000I-147500J0D01*
G01*
X131701500Y-86172000D01*
G75*
G02*
X131554000Y-86024500I0J147500D01*
G01*
G37*
%TD*%
%TO.C,C9*%
G36*
G01*
X125540000Y-83520500D02*
X125540000Y-83865500D01*
G75*
G02*
X125392500Y-84013000I-147500J0D01*
G01*
X125097500Y-84013000D01*
G75*
G02*
X124950000Y-83865500I0J147500D01*
G01*
X124950000Y-83520500D01*
G75*
G02*
X125097500Y-83373000I147500J0D01*
G01*
X125392500Y-83373000D01*
G75*
G02*
X125540000Y-83520500I0J-147500D01*
G01*
G37*
G36*
G01*
X126510000Y-83520500D02*
X126510000Y-83865500D01*
G75*
G02*
X126362500Y-84013000I-147500J0D01*
G01*
X126067500Y-84013000D01*
G75*
G02*
X125920000Y-83865500I0J147500D01*
G01*
X125920000Y-83520500D01*
G75*
G02*
X126067500Y-83373000I147500J0D01*
G01*
X126362500Y-83373000D01*
G75*
G02*
X126510000Y-83520500I0J-147500D01*
G01*
G37*
%TD*%
%TO.C,C10*%
G36*
G01*
X135046500Y-75629000D02*
X134701500Y-75629000D01*
G75*
G02*
X134554000Y-75481500I0J147500D01*
G01*
X134554000Y-75186500D01*
G75*
G02*
X134701500Y-75039000I147500J0D01*
G01*
X135046500Y-75039000D01*
G75*
G02*
X135194000Y-75186500I0J-147500D01*
G01*
X135194000Y-75481500D01*
G75*
G02*
X135046500Y-75629000I-147500J0D01*
G01*
G37*
G36*
G01*
X135046500Y-76599000D02*
X134701500Y-76599000D01*
G75*
G02*
X134554000Y-76451500I0J147500D01*
G01*
X134554000Y-76156500D01*
G75*
G02*
X134701500Y-76009000I147500J0D01*
G01*
X135046500Y-76009000D01*
G75*
G02*
X135194000Y-76156500I0J-147500D01*
G01*
X135194000Y-76451500D01*
G75*
G02*
X135046500Y-76599000I-147500J0D01*
G01*
G37*
%TD*%
%TO.C,R1*%
G36*
G01*
X122346500Y-81044000D02*
X122001500Y-81044000D01*
G75*
G02*
X121854000Y-80896500I0J147500D01*
G01*
X121854000Y-80601500D01*
G75*
G02*
X122001500Y-80454000I147500J0D01*
G01*
X122346500Y-80454000D01*
G75*
G02*
X122494000Y-80601500I0J-147500D01*
G01*
X122494000Y-80896500D01*
G75*
G02*
X122346500Y-81044000I-147500J0D01*
G01*
G37*
G36*
G01*
X122346500Y-80074000D02*
X122001500Y-80074000D01*
G75*
G02*
X121854000Y-79926500I0J147500D01*
G01*
X121854000Y-79631500D01*
G75*
G02*
X122001500Y-79484000I147500J0D01*
G01*
X122346500Y-79484000D01*
G75*
G02*
X122494000Y-79631500I0J-147500D01*
G01*
X122494000Y-79926500D01*
G75*
G02*
X122346500Y-80074000I-147500J0D01*
G01*
G37*
%TD*%
%TO.C,R2*%
G36*
G01*
X136824500Y-79266000D02*
X136479500Y-79266000D01*
G75*
G02*
X136332000Y-79118500I0J147500D01*
G01*
X136332000Y-78823500D01*
G75*
G02*
X136479500Y-78676000I147500J0D01*
G01*
X136824500Y-78676000D01*
G75*
G02*
X136972000Y-78823500I0J-147500D01*
G01*
X136972000Y-79118500D01*
G75*
G02*
X136824500Y-79266000I-147500J0D01*
G01*
G37*
G36*
G01*
X136824500Y-78296000D02*
X136479500Y-78296000D01*
G75*
G02*
X136332000Y-78148500I0J147500D01*
G01*
X136332000Y-77853500D01*
G75*
G02*
X136479500Y-77706000I147500J0D01*
G01*
X136824500Y-77706000D01*
G75*
G02*
X136972000Y-77853500I0J-147500D01*
G01*
X136972000Y-78148500D01*
G75*
G02*
X136824500Y-78296000I-147500J0D01*
G01*
G37*
%TD*%
%TO.C,R3*%
G36*
G01*
X130238000Y-95168500D02*
X130238000Y-94823500D01*
G75*
G02*
X130385500Y-94676000I147500J0D01*
G01*
X130680500Y-94676000D01*
G75*
G02*
X130828000Y-94823500I0J-147500D01*
G01*
X130828000Y-95168500D01*
G75*
G02*
X130680500Y-95316000I-147500J0D01*
G01*
X130385500Y-95316000D01*
G75*
G02*
X130238000Y-95168500I0J147500D01*
G01*
G37*
G36*
G01*
X129268000Y-95168500D02*
X129268000Y-94823500D01*
G75*
G02*
X129415500Y-94676000I147500J0D01*
G01*
X129710500Y-94676000D01*
G75*
G02*
X129858000Y-94823500I0J-147500D01*
G01*
X129858000Y-95168500D01*
G75*
G02*
X129710500Y-95316000I-147500J0D01*
G01*
X129415500Y-95316000D01*
G75*
G02*
X129268000Y-95168500I0J147500D01*
G01*
G37*
%TD*%
%TO.C,R4*%
G36*
G01*
X127335500Y-70848000D02*
X127680500Y-70848000D01*
G75*
G02*
X127828000Y-70995500I0J-147500D01*
G01*
X127828000Y-71290500D01*
G75*
G02*
X127680500Y-71438000I-147500J0D01*
G01*
X127335500Y-71438000D01*
G75*
G02*
X127188000Y-71290500I0J147500D01*
G01*
X127188000Y-70995500D01*
G75*
G02*
X127335500Y-70848000I147500J0D01*
G01*
G37*
G36*
G01*
X127335500Y-71818000D02*
X127680500Y-71818000D01*
G75*
G02*
X127828000Y-71965500I0J-147500D01*
G01*
X127828000Y-72260500D01*
G75*
G02*
X127680500Y-72408000I-147500J0D01*
G01*
X127335500Y-72408000D01*
G75*
G02*
X127188000Y-72260500I0J147500D01*
G01*
X127188000Y-71965500D01*
G75*
G02*
X127335500Y-71818000I147500J0D01*
G01*
G37*
%TD*%
%TO.C,R5*%
G36*
G01*
X129034250Y-72345000D02*
X128521750Y-72345000D01*
G75*
G02*
X128303000Y-72126250I0J218750D01*
G01*
X128303000Y-71688750D01*
G75*
G02*
X128521750Y-71470000I218750J0D01*
G01*
X129034250Y-71470000D01*
G75*
G02*
X129253000Y-71688750I0J-218750D01*
G01*
X129253000Y-72126250D01*
G75*
G02*
X129034250Y-72345000I-218750J0D01*
G01*
G37*
G36*
G01*
X129034250Y-70770000D02*
X128521750Y-70770000D01*
G75*
G02*
X128303000Y-70551250I0J218750D01*
G01*
X128303000Y-70113750D01*
G75*
G02*
X128521750Y-69895000I218750J0D01*
G01*
X129034250Y-69895000D01*
G75*
G02*
X129253000Y-70113750I0J-218750D01*
G01*
X129253000Y-70551250D01*
G75*
G02*
X129034250Y-70770000I-218750J0D01*
G01*
G37*
%TD*%
%TO.C,R6*%
G36*
G01*
X130558250Y-70770000D02*
X130045750Y-70770000D01*
G75*
G02*
X129827000Y-70551250I0J218750D01*
G01*
X129827000Y-70113750D01*
G75*
G02*
X130045750Y-69895000I218750J0D01*
G01*
X130558250Y-69895000D01*
G75*
G02*
X130777000Y-70113750I0J-218750D01*
G01*
X130777000Y-70551250D01*
G75*
G02*
X130558250Y-70770000I-218750J0D01*
G01*
G37*
G36*
G01*
X130558250Y-72345000D02*
X130045750Y-72345000D01*
G75*
G02*
X129827000Y-72126250I0J218750D01*
G01*
X129827000Y-71688750D01*
G75*
G02*
X130045750Y-71470000I218750J0D01*
G01*
X130558250Y-71470000D01*
G75*
G02*
X130777000Y-71688750I0J-218750D01*
G01*
X130777000Y-72126250D01*
G75*
G02*
X130558250Y-72345000I-218750J0D01*
G01*
G37*
%TD*%
D13*
%TO.C,U1*%
X144032000Y-62890000D03*
X139432000Y-62890000D03*
X141732000Y-62890000D03*
D14*
X141732000Y-69190000D03*
%TD*%
%TO.C,U2*%
G36*
G01*
X127881000Y-84910000D02*
X127731000Y-84910000D01*
G75*
G02*
X127656000Y-84835000I0J75000D01*
G01*
X127656000Y-83510000D01*
G75*
G02*
X127731000Y-83435000I75000J0D01*
G01*
X127881000Y-83435000D01*
G75*
G02*
X127956000Y-83510000I0J-75000D01*
G01*
X127956000Y-84835000D01*
G75*
G02*
X127881000Y-84910000I-75000J0D01*
G01*
G37*
G36*
G01*
X128381000Y-84910000D02*
X128231000Y-84910000D01*
G75*
G02*
X128156000Y-84835000I0J75000D01*
G01*
X128156000Y-83510000D01*
G75*
G02*
X128231000Y-83435000I75000J0D01*
G01*
X128381000Y-83435000D01*
G75*
G02*
X128456000Y-83510000I0J-75000D01*
G01*
X128456000Y-84835000D01*
G75*
G02*
X128381000Y-84910000I-75000J0D01*
G01*
G37*
G36*
G01*
X128881000Y-84910000D02*
X128731000Y-84910000D01*
G75*
G02*
X128656000Y-84835000I0J75000D01*
G01*
X128656000Y-83510000D01*
G75*
G02*
X128731000Y-83435000I75000J0D01*
G01*
X128881000Y-83435000D01*
G75*
G02*
X128956000Y-83510000I0J-75000D01*
G01*
X128956000Y-84835000D01*
G75*
G02*
X128881000Y-84910000I-75000J0D01*
G01*
G37*
G36*
G01*
X129381000Y-84910000D02*
X129231000Y-84910000D01*
G75*
G02*
X129156000Y-84835000I0J75000D01*
G01*
X129156000Y-83510000D01*
G75*
G02*
X129231000Y-83435000I75000J0D01*
G01*
X129381000Y-83435000D01*
G75*
G02*
X129456000Y-83510000I0J-75000D01*
G01*
X129456000Y-84835000D01*
G75*
G02*
X129381000Y-84910000I-75000J0D01*
G01*
G37*
G36*
G01*
X129881000Y-84910000D02*
X129731000Y-84910000D01*
G75*
G02*
X129656000Y-84835000I0J75000D01*
G01*
X129656000Y-83510000D01*
G75*
G02*
X129731000Y-83435000I75000J0D01*
G01*
X129881000Y-83435000D01*
G75*
G02*
X129956000Y-83510000I0J-75000D01*
G01*
X129956000Y-84835000D01*
G75*
G02*
X129881000Y-84910000I-75000J0D01*
G01*
G37*
G36*
G01*
X130381000Y-84910000D02*
X130231000Y-84910000D01*
G75*
G02*
X130156000Y-84835000I0J75000D01*
G01*
X130156000Y-83510000D01*
G75*
G02*
X130231000Y-83435000I75000J0D01*
G01*
X130381000Y-83435000D01*
G75*
G02*
X130456000Y-83510000I0J-75000D01*
G01*
X130456000Y-84835000D01*
G75*
G02*
X130381000Y-84910000I-75000J0D01*
G01*
G37*
G36*
G01*
X130881000Y-84910000D02*
X130731000Y-84910000D01*
G75*
G02*
X130656000Y-84835000I0J75000D01*
G01*
X130656000Y-83510000D01*
G75*
G02*
X130731000Y-83435000I75000J0D01*
G01*
X130881000Y-83435000D01*
G75*
G02*
X130956000Y-83510000I0J-75000D01*
G01*
X130956000Y-84835000D01*
G75*
G02*
X130881000Y-84910000I-75000J0D01*
G01*
G37*
G36*
G01*
X131381000Y-84910000D02*
X131231000Y-84910000D01*
G75*
G02*
X131156000Y-84835000I0J75000D01*
G01*
X131156000Y-83510000D01*
G75*
G02*
X131231000Y-83435000I75000J0D01*
G01*
X131381000Y-83435000D01*
G75*
G02*
X131456000Y-83510000I0J-75000D01*
G01*
X131456000Y-84835000D01*
G75*
G02*
X131381000Y-84910000I-75000J0D01*
G01*
G37*
G36*
G01*
X131881000Y-84910000D02*
X131731000Y-84910000D01*
G75*
G02*
X131656000Y-84835000I0J75000D01*
G01*
X131656000Y-83510000D01*
G75*
G02*
X131731000Y-83435000I75000J0D01*
G01*
X131881000Y-83435000D01*
G75*
G02*
X131956000Y-83510000I0J-75000D01*
G01*
X131956000Y-84835000D01*
G75*
G02*
X131881000Y-84910000I-75000J0D01*
G01*
G37*
G36*
G01*
X132381000Y-84910000D02*
X132231000Y-84910000D01*
G75*
G02*
X132156000Y-84835000I0J75000D01*
G01*
X132156000Y-83510000D01*
G75*
G02*
X132231000Y-83435000I75000J0D01*
G01*
X132381000Y-83435000D01*
G75*
G02*
X132456000Y-83510000I0J-75000D01*
G01*
X132456000Y-84835000D01*
G75*
G02*
X132381000Y-84910000I-75000J0D01*
G01*
G37*
G36*
G01*
X132881000Y-84910000D02*
X132731000Y-84910000D01*
G75*
G02*
X132656000Y-84835000I0J75000D01*
G01*
X132656000Y-83510000D01*
G75*
G02*
X132731000Y-83435000I75000J0D01*
G01*
X132881000Y-83435000D01*
G75*
G02*
X132956000Y-83510000I0J-75000D01*
G01*
X132956000Y-84835000D01*
G75*
G02*
X132881000Y-84910000I-75000J0D01*
G01*
G37*
G36*
G01*
X133381000Y-84910000D02*
X133231000Y-84910000D01*
G75*
G02*
X133156000Y-84835000I0J75000D01*
G01*
X133156000Y-83510000D01*
G75*
G02*
X133231000Y-83435000I75000J0D01*
G01*
X133381000Y-83435000D01*
G75*
G02*
X133456000Y-83510000I0J-75000D01*
G01*
X133456000Y-84835000D01*
G75*
G02*
X133381000Y-84910000I-75000J0D01*
G01*
G37*
G36*
G01*
X135381000Y-82910000D02*
X134056000Y-82910000D01*
G75*
G02*
X133981000Y-82835000I0J75000D01*
G01*
X133981000Y-82685000D01*
G75*
G02*
X134056000Y-82610000I75000J0D01*
G01*
X135381000Y-82610000D01*
G75*
G02*
X135456000Y-82685000I0J-75000D01*
G01*
X135456000Y-82835000D01*
G75*
G02*
X135381000Y-82910000I-75000J0D01*
G01*
G37*
G36*
G01*
X135381000Y-82410000D02*
X134056000Y-82410000D01*
G75*
G02*
X133981000Y-82335000I0J75000D01*
G01*
X133981000Y-82185000D01*
G75*
G02*
X134056000Y-82110000I75000J0D01*
G01*
X135381000Y-82110000D01*
G75*
G02*
X135456000Y-82185000I0J-75000D01*
G01*
X135456000Y-82335000D01*
G75*
G02*
X135381000Y-82410000I-75000J0D01*
G01*
G37*
G36*
G01*
X135381000Y-81910000D02*
X134056000Y-81910000D01*
G75*
G02*
X133981000Y-81835000I0J75000D01*
G01*
X133981000Y-81685000D01*
G75*
G02*
X134056000Y-81610000I75000J0D01*
G01*
X135381000Y-81610000D01*
G75*
G02*
X135456000Y-81685000I0J-75000D01*
G01*
X135456000Y-81835000D01*
G75*
G02*
X135381000Y-81910000I-75000J0D01*
G01*
G37*
G36*
G01*
X135381000Y-81410000D02*
X134056000Y-81410000D01*
G75*
G02*
X133981000Y-81335000I0J75000D01*
G01*
X133981000Y-81185000D01*
G75*
G02*
X134056000Y-81110000I75000J0D01*
G01*
X135381000Y-81110000D01*
G75*
G02*
X135456000Y-81185000I0J-75000D01*
G01*
X135456000Y-81335000D01*
G75*
G02*
X135381000Y-81410000I-75000J0D01*
G01*
G37*
G36*
G01*
X135381000Y-80910000D02*
X134056000Y-80910000D01*
G75*
G02*
X133981000Y-80835000I0J75000D01*
G01*
X133981000Y-80685000D01*
G75*
G02*
X134056000Y-80610000I75000J0D01*
G01*
X135381000Y-80610000D01*
G75*
G02*
X135456000Y-80685000I0J-75000D01*
G01*
X135456000Y-80835000D01*
G75*
G02*
X135381000Y-80910000I-75000J0D01*
G01*
G37*
G36*
G01*
X135381000Y-80410000D02*
X134056000Y-80410000D01*
G75*
G02*
X133981000Y-80335000I0J75000D01*
G01*
X133981000Y-80185000D01*
G75*
G02*
X134056000Y-80110000I75000J0D01*
G01*
X135381000Y-80110000D01*
G75*
G02*
X135456000Y-80185000I0J-75000D01*
G01*
X135456000Y-80335000D01*
G75*
G02*
X135381000Y-80410000I-75000J0D01*
G01*
G37*
G36*
G01*
X135381000Y-79910000D02*
X134056000Y-79910000D01*
G75*
G02*
X133981000Y-79835000I0J75000D01*
G01*
X133981000Y-79685000D01*
G75*
G02*
X134056000Y-79610000I75000J0D01*
G01*
X135381000Y-79610000D01*
G75*
G02*
X135456000Y-79685000I0J-75000D01*
G01*
X135456000Y-79835000D01*
G75*
G02*
X135381000Y-79910000I-75000J0D01*
G01*
G37*
G36*
G01*
X135381000Y-79410000D02*
X134056000Y-79410000D01*
G75*
G02*
X133981000Y-79335000I0J75000D01*
G01*
X133981000Y-79185000D01*
G75*
G02*
X134056000Y-79110000I75000J0D01*
G01*
X135381000Y-79110000D01*
G75*
G02*
X135456000Y-79185000I0J-75000D01*
G01*
X135456000Y-79335000D01*
G75*
G02*
X135381000Y-79410000I-75000J0D01*
G01*
G37*
G36*
G01*
X135381000Y-78910000D02*
X134056000Y-78910000D01*
G75*
G02*
X133981000Y-78835000I0J75000D01*
G01*
X133981000Y-78685000D01*
G75*
G02*
X134056000Y-78610000I75000J0D01*
G01*
X135381000Y-78610000D01*
G75*
G02*
X135456000Y-78685000I0J-75000D01*
G01*
X135456000Y-78835000D01*
G75*
G02*
X135381000Y-78910000I-75000J0D01*
G01*
G37*
G36*
G01*
X135381000Y-78410000D02*
X134056000Y-78410000D01*
G75*
G02*
X133981000Y-78335000I0J75000D01*
G01*
X133981000Y-78185000D01*
G75*
G02*
X134056000Y-78110000I75000J0D01*
G01*
X135381000Y-78110000D01*
G75*
G02*
X135456000Y-78185000I0J-75000D01*
G01*
X135456000Y-78335000D01*
G75*
G02*
X135381000Y-78410000I-75000J0D01*
G01*
G37*
G36*
G01*
X135381000Y-77910000D02*
X134056000Y-77910000D01*
G75*
G02*
X133981000Y-77835000I0J75000D01*
G01*
X133981000Y-77685000D01*
G75*
G02*
X134056000Y-77610000I75000J0D01*
G01*
X135381000Y-77610000D01*
G75*
G02*
X135456000Y-77685000I0J-75000D01*
G01*
X135456000Y-77835000D01*
G75*
G02*
X135381000Y-77910000I-75000J0D01*
G01*
G37*
G36*
G01*
X135381000Y-77410000D02*
X134056000Y-77410000D01*
G75*
G02*
X133981000Y-77335000I0J75000D01*
G01*
X133981000Y-77185000D01*
G75*
G02*
X134056000Y-77110000I75000J0D01*
G01*
X135381000Y-77110000D01*
G75*
G02*
X135456000Y-77185000I0J-75000D01*
G01*
X135456000Y-77335000D01*
G75*
G02*
X135381000Y-77410000I-75000J0D01*
G01*
G37*
G36*
G01*
X133381000Y-76585000D02*
X133231000Y-76585000D01*
G75*
G02*
X133156000Y-76510000I0J75000D01*
G01*
X133156000Y-75185000D01*
G75*
G02*
X133231000Y-75110000I75000J0D01*
G01*
X133381000Y-75110000D01*
G75*
G02*
X133456000Y-75185000I0J-75000D01*
G01*
X133456000Y-76510000D01*
G75*
G02*
X133381000Y-76585000I-75000J0D01*
G01*
G37*
G36*
G01*
X132881000Y-76585000D02*
X132731000Y-76585000D01*
G75*
G02*
X132656000Y-76510000I0J75000D01*
G01*
X132656000Y-75185000D01*
G75*
G02*
X132731000Y-75110000I75000J0D01*
G01*
X132881000Y-75110000D01*
G75*
G02*
X132956000Y-75185000I0J-75000D01*
G01*
X132956000Y-76510000D01*
G75*
G02*
X132881000Y-76585000I-75000J0D01*
G01*
G37*
G36*
G01*
X132381000Y-76585000D02*
X132231000Y-76585000D01*
G75*
G02*
X132156000Y-76510000I0J75000D01*
G01*
X132156000Y-75185000D01*
G75*
G02*
X132231000Y-75110000I75000J0D01*
G01*
X132381000Y-75110000D01*
G75*
G02*
X132456000Y-75185000I0J-75000D01*
G01*
X132456000Y-76510000D01*
G75*
G02*
X132381000Y-76585000I-75000J0D01*
G01*
G37*
G36*
G01*
X131881000Y-76585000D02*
X131731000Y-76585000D01*
G75*
G02*
X131656000Y-76510000I0J75000D01*
G01*
X131656000Y-75185000D01*
G75*
G02*
X131731000Y-75110000I75000J0D01*
G01*
X131881000Y-75110000D01*
G75*
G02*
X131956000Y-75185000I0J-75000D01*
G01*
X131956000Y-76510000D01*
G75*
G02*
X131881000Y-76585000I-75000J0D01*
G01*
G37*
G36*
G01*
X131381000Y-76585000D02*
X131231000Y-76585000D01*
G75*
G02*
X131156000Y-76510000I0J75000D01*
G01*
X131156000Y-75185000D01*
G75*
G02*
X131231000Y-75110000I75000J0D01*
G01*
X131381000Y-75110000D01*
G75*
G02*
X131456000Y-75185000I0J-75000D01*
G01*
X131456000Y-76510000D01*
G75*
G02*
X131381000Y-76585000I-75000J0D01*
G01*
G37*
G36*
G01*
X130881000Y-76585000D02*
X130731000Y-76585000D01*
G75*
G02*
X130656000Y-76510000I0J75000D01*
G01*
X130656000Y-75185000D01*
G75*
G02*
X130731000Y-75110000I75000J0D01*
G01*
X130881000Y-75110000D01*
G75*
G02*
X130956000Y-75185000I0J-75000D01*
G01*
X130956000Y-76510000D01*
G75*
G02*
X130881000Y-76585000I-75000J0D01*
G01*
G37*
G36*
G01*
X130381000Y-76585000D02*
X130231000Y-76585000D01*
G75*
G02*
X130156000Y-76510000I0J75000D01*
G01*
X130156000Y-75185000D01*
G75*
G02*
X130231000Y-75110000I75000J0D01*
G01*
X130381000Y-75110000D01*
G75*
G02*
X130456000Y-75185000I0J-75000D01*
G01*
X130456000Y-76510000D01*
G75*
G02*
X130381000Y-76585000I-75000J0D01*
G01*
G37*
G36*
G01*
X129881000Y-76585000D02*
X129731000Y-76585000D01*
G75*
G02*
X129656000Y-76510000I0J75000D01*
G01*
X129656000Y-75185000D01*
G75*
G02*
X129731000Y-75110000I75000J0D01*
G01*
X129881000Y-75110000D01*
G75*
G02*
X129956000Y-75185000I0J-75000D01*
G01*
X129956000Y-76510000D01*
G75*
G02*
X129881000Y-76585000I-75000J0D01*
G01*
G37*
G36*
G01*
X129381000Y-76585000D02*
X129231000Y-76585000D01*
G75*
G02*
X129156000Y-76510000I0J75000D01*
G01*
X129156000Y-75185000D01*
G75*
G02*
X129231000Y-75110000I75000J0D01*
G01*
X129381000Y-75110000D01*
G75*
G02*
X129456000Y-75185000I0J-75000D01*
G01*
X129456000Y-76510000D01*
G75*
G02*
X129381000Y-76585000I-75000J0D01*
G01*
G37*
G36*
G01*
X128881000Y-76585000D02*
X128731000Y-76585000D01*
G75*
G02*
X128656000Y-76510000I0J75000D01*
G01*
X128656000Y-75185000D01*
G75*
G02*
X128731000Y-75110000I75000J0D01*
G01*
X128881000Y-75110000D01*
G75*
G02*
X128956000Y-75185000I0J-75000D01*
G01*
X128956000Y-76510000D01*
G75*
G02*
X128881000Y-76585000I-75000J0D01*
G01*
G37*
G36*
G01*
X128381000Y-76585000D02*
X128231000Y-76585000D01*
G75*
G02*
X128156000Y-76510000I0J75000D01*
G01*
X128156000Y-75185000D01*
G75*
G02*
X128231000Y-75110000I75000J0D01*
G01*
X128381000Y-75110000D01*
G75*
G02*
X128456000Y-75185000I0J-75000D01*
G01*
X128456000Y-76510000D01*
G75*
G02*
X128381000Y-76585000I-75000J0D01*
G01*
G37*
G36*
G01*
X127881000Y-76585000D02*
X127731000Y-76585000D01*
G75*
G02*
X127656000Y-76510000I0J75000D01*
G01*
X127656000Y-75185000D01*
G75*
G02*
X127731000Y-75110000I75000J0D01*
G01*
X127881000Y-75110000D01*
G75*
G02*
X127956000Y-75185000I0J-75000D01*
G01*
X127956000Y-76510000D01*
G75*
G02*
X127881000Y-76585000I-75000J0D01*
G01*
G37*
G36*
G01*
X127056000Y-77410000D02*
X125731000Y-77410000D01*
G75*
G02*
X125656000Y-77335000I0J75000D01*
G01*
X125656000Y-77185000D01*
G75*
G02*
X125731000Y-77110000I75000J0D01*
G01*
X127056000Y-77110000D01*
G75*
G02*
X127131000Y-77185000I0J-75000D01*
G01*
X127131000Y-77335000D01*
G75*
G02*
X127056000Y-77410000I-75000J0D01*
G01*
G37*
G36*
G01*
X127056000Y-77910000D02*
X125731000Y-77910000D01*
G75*
G02*
X125656000Y-77835000I0J75000D01*
G01*
X125656000Y-77685000D01*
G75*
G02*
X125731000Y-77610000I75000J0D01*
G01*
X127056000Y-77610000D01*
G75*
G02*
X127131000Y-77685000I0J-75000D01*
G01*
X127131000Y-77835000D01*
G75*
G02*
X127056000Y-77910000I-75000J0D01*
G01*
G37*
G36*
G01*
X127056000Y-78410000D02*
X125731000Y-78410000D01*
G75*
G02*
X125656000Y-78335000I0J75000D01*
G01*
X125656000Y-78185000D01*
G75*
G02*
X125731000Y-78110000I75000J0D01*
G01*
X127056000Y-78110000D01*
G75*
G02*
X127131000Y-78185000I0J-75000D01*
G01*
X127131000Y-78335000D01*
G75*
G02*
X127056000Y-78410000I-75000J0D01*
G01*
G37*
G36*
G01*
X127056000Y-78910000D02*
X125731000Y-78910000D01*
G75*
G02*
X125656000Y-78835000I0J75000D01*
G01*
X125656000Y-78685000D01*
G75*
G02*
X125731000Y-78610000I75000J0D01*
G01*
X127056000Y-78610000D01*
G75*
G02*
X127131000Y-78685000I0J-75000D01*
G01*
X127131000Y-78835000D01*
G75*
G02*
X127056000Y-78910000I-75000J0D01*
G01*
G37*
G36*
G01*
X127056000Y-79410000D02*
X125731000Y-79410000D01*
G75*
G02*
X125656000Y-79335000I0J75000D01*
G01*
X125656000Y-79185000D01*
G75*
G02*
X125731000Y-79110000I75000J0D01*
G01*
X127056000Y-79110000D01*
G75*
G02*
X127131000Y-79185000I0J-75000D01*
G01*
X127131000Y-79335000D01*
G75*
G02*
X127056000Y-79410000I-75000J0D01*
G01*
G37*
G36*
G01*
X127056000Y-79910000D02*
X125731000Y-79910000D01*
G75*
G02*
X125656000Y-79835000I0J75000D01*
G01*
X125656000Y-79685000D01*
G75*
G02*
X125731000Y-79610000I75000J0D01*
G01*
X127056000Y-79610000D01*
G75*
G02*
X127131000Y-79685000I0J-75000D01*
G01*
X127131000Y-79835000D01*
G75*
G02*
X127056000Y-79910000I-75000J0D01*
G01*
G37*
G36*
G01*
X127056000Y-80410000D02*
X125731000Y-80410000D01*
G75*
G02*
X125656000Y-80335000I0J75000D01*
G01*
X125656000Y-80185000D01*
G75*
G02*
X125731000Y-80110000I75000J0D01*
G01*
X127056000Y-80110000D01*
G75*
G02*
X127131000Y-80185000I0J-75000D01*
G01*
X127131000Y-80335000D01*
G75*
G02*
X127056000Y-80410000I-75000J0D01*
G01*
G37*
G36*
G01*
X127056000Y-80910000D02*
X125731000Y-80910000D01*
G75*
G02*
X125656000Y-80835000I0J75000D01*
G01*
X125656000Y-80685000D01*
G75*
G02*
X125731000Y-80610000I75000J0D01*
G01*
X127056000Y-80610000D01*
G75*
G02*
X127131000Y-80685000I0J-75000D01*
G01*
X127131000Y-80835000D01*
G75*
G02*
X127056000Y-80910000I-75000J0D01*
G01*
G37*
G36*
G01*
X127056000Y-81410000D02*
X125731000Y-81410000D01*
G75*
G02*
X125656000Y-81335000I0J75000D01*
G01*
X125656000Y-81185000D01*
G75*
G02*
X125731000Y-81110000I75000J0D01*
G01*
X127056000Y-81110000D01*
G75*
G02*
X127131000Y-81185000I0J-75000D01*
G01*
X127131000Y-81335000D01*
G75*
G02*
X127056000Y-81410000I-75000J0D01*
G01*
G37*
G36*
G01*
X127056000Y-81910000D02*
X125731000Y-81910000D01*
G75*
G02*
X125656000Y-81835000I0J75000D01*
G01*
X125656000Y-81685000D01*
G75*
G02*
X125731000Y-81610000I75000J0D01*
G01*
X127056000Y-81610000D01*
G75*
G02*
X127131000Y-81685000I0J-75000D01*
G01*
X127131000Y-81835000D01*
G75*
G02*
X127056000Y-81910000I-75000J0D01*
G01*
G37*
G36*
G01*
X127056000Y-82410000D02*
X125731000Y-82410000D01*
G75*
G02*
X125656000Y-82335000I0J75000D01*
G01*
X125656000Y-82185000D01*
G75*
G02*
X125731000Y-82110000I75000J0D01*
G01*
X127056000Y-82110000D01*
G75*
G02*
X127131000Y-82185000I0J-75000D01*
G01*
X127131000Y-82335000D01*
G75*
G02*
X127056000Y-82410000I-75000J0D01*
G01*
G37*
G36*
G01*
X127056000Y-82910000D02*
X125731000Y-82910000D01*
G75*
G02*
X125656000Y-82835000I0J75000D01*
G01*
X125656000Y-82685000D01*
G75*
G02*
X125731000Y-82610000I75000J0D01*
G01*
X127056000Y-82610000D01*
G75*
G02*
X127131000Y-82685000I0J-75000D01*
G01*
X127131000Y-82835000D01*
G75*
G02*
X127056000Y-82910000I-75000J0D01*
G01*
G37*
%TD*%
D15*
%TO.C,Y1*%
X128198000Y-89408000D03*
X131898000Y-89408000D03*
%TD*%
%TO.C,C11*%
G36*
G01*
X134684000Y-84282500D02*
X134684000Y-84627500D01*
G75*
G02*
X134536500Y-84775000I-147500J0D01*
G01*
X134241500Y-84775000D01*
G75*
G02*
X134094000Y-84627500I0J147500D01*
G01*
X134094000Y-84282500D01*
G75*
G02*
X134241500Y-84135000I147500J0D01*
G01*
X134536500Y-84135000D01*
G75*
G02*
X134684000Y-84282500I0J-147500D01*
G01*
G37*
G36*
G01*
X135654000Y-84282500D02*
X135654000Y-84627500D01*
G75*
G02*
X135506500Y-84775000I-147500J0D01*
G01*
X135211500Y-84775000D01*
G75*
G02*
X135064000Y-84627500I0J147500D01*
G01*
X135064000Y-84282500D01*
G75*
G02*
X135211500Y-84135000I147500J0D01*
G01*
X135506500Y-84135000D01*
G75*
G02*
X135654000Y-84282500I0J-147500D01*
G01*
G37*
%TD*%
M02*
