M48
; DRILL file {KiCad (5.1.6)-1} date 06/10/20 16:59:04
; FORMAT={-:-/ absolute / inch / decimal}
; #@! TF.CreationDate,2020-06-10T16:59:04-05:00
; #@! TF.GenerationSoftware,Kicad,Pcbnew,(5.1.6)-1
FMAT,2
INCH
T1C0.0157
T2C0.0374
T3C0.0394
T4C0.0394
T5C0.0866
%
G90
G05
T1
X4.05Y-3.02
X4.05Y-3.23
X4.21Y-3.155
X4.21Y-3.19
X4.27Y-3.02
X4.27Y-3.23
X4.48Y-3.76
X4.85Y-3.14
X4.905Y-3.26
X4.96Y-2.92
X4.98Y-2.84
X5.04Y-3.24
X5.05Y-3.04
X5.0705Y-2.9305
X5.09Y-3.68
X5.13Y-2.931
X5.15Y-3.68
X5.17Y-3.26
X5.175Y-2.84
X5.25Y-3.06
X5.27Y-3.38
X5.31Y-2.93
X5.37Y-3.325
X5.38Y-3.03
X5.39Y-2.35
X5.49Y-2.32
X5.62Y-2.31
X5.67Y-2.58
X5.7Y-2.4
T2
X6.0Y-2.4294
X6.0Y-2.5279
X6.0Y-2.6263
X6.0Y-2.7247
X6.0Y-2.8231
X6.0Y-2.9216
X6.0Y-3.02
T3
X5.35Y-2.63
X5.35Y-2.73
X5.35Y-2.83
X5.69Y-2.95
X5.69Y-3.05
X5.69Y-3.15
X5.69Y-3.25
X5.69Y-3.35
X5.69Y-3.45
X5.69Y-3.55
X4.6Y-3.03
X4.6Y-3.13
X4.6Y-3.23
X4.6Y-3.33
X5.48Y-2.13
X5.58Y-2.13
X5.68Y-2.13
X5.78Y-2.13
T4
X4.1676Y-3.0382
X4.1676Y-3.2114
T5
X5.14Y-4.06
X5.14Y-2.54
T0
M30
